{
.appVersion = "113";
copyright = "Copyright © 2021 by Tuna Çağlar Gümüş.";
customParameters = (
{
name = license;
value = M;
}
);
date = "2021-04-11 18:32:49 +0000";
designer = "Tuna Çağlar Gümüş";
designerURL = "https://pikseladam.com/";
familyName = Saman;
featurePrefixes = (
{
automatic = 1;
code = "languagesystem DFLT dflt;\012languagesystem latn dflt;\012languagesystem latn ROM;\012languagesystem latn MOL;\012languagesystem latn KAZ;\012languagesystem latn TAT;\012languagesystem latn TRK;\012languagesystem latn CRT;\012languagesystem latn AZE;\012";
name = Languagesystems;
}
);
features = (
{
automatic = 1;
code = "feature locl;\012";
name = aalt;
},
{
automatic = 1;
code = "script latn;\012language ROM;\012sub Scedilla by Scommaaccent;\012sub scedilla by scommaaccent;\012sub Tcedilla by Tcommaaccent;\012sub tcedilla by tcommaaccent;\012language MOL;\012sub Scedilla by Scommaaccent;\012sub scedilla by scommaaccent;\012sub Tcedilla by Tcommaaccent;\012sub tcedilla by tcommaaccent;\012language KAZ;\012sub i by idotaccent;\012language TAT;\012sub i by idotaccent;\012language TRK;\012sub i by idotaccent;\012language CRT;\012sub i by idotaccent;\012language AZE;\012sub i by idotaccent;\012";
name = locl;
}
);
fontMaster = (
{
alignmentZones = (
"{800, 16}",
"{700, 16}",
"{500, 16}",
"{0, -15}",
"{-200, -16}"
);
ascender = 800;
capHeight = 700;
descender = -200;
id = "A833981A-68C5-4528-81CD-92C717829696";
weightValue = 0;
widthValue = 0;
xHeight = 500;
}
);
glyphs = (
{
glyphname = A;
lastChange = "2021-04-12 15:30:13 +0000";
layers = (
{
layerId = "A833981A-68C5-4528-81CD-92C717829696";
paths = (
{
closed = 1;
nodes = (
"80 0 LINE",
"210 0 LINE",
"355 700 LINE",
"225 700 LINE"
);
},
{
closed = 1;
nodes = (
"152 279 LINE",
"152 149 LINE",
"428 149 LINE",
"428 279 LINE"
);
},
{
closed = 1;
nodes = (
"225 700 LINE",
"370 0 LINE",
"500 0 LINE",
"355 700 LINE"
);
}
);
width = 580;
}
);
unicode = 0041;
},
{
glyphname = AE;
lastChange = "2021-04-13 09:35:45 +0000";
layers = (
{
layerId = "A833981A-68C5-4528-81CD-92C717829696";
paths = (
{
closed = 1;
nodes = (
"80 0 LINE",
"210 0 LINE",
"370 700 LINE",
"225 700 LINE"
);
},
{
closed = 1;
nodes = (
"152 279 LINE",
"152 149 LINE",
"428 149 LINE",
"428 279 LINE"
);
},
{
closed = 1;
nodes = (
"225 700 LINE",
"370 0 LINE",
"500 0 LINE",
"370 700 LINE"
);
},
{
closed = 1;
nodes = (
"370 0 LINE",
"500 0 LINE",
"500 700 LINE",
"370 700 LINE"
);
},
{
closed = 1;
nodes = (
"394 130 LINE",
"394 0 LINE",
"790 0 LINE",
"790 130 LINE"
);
},
{
closed = 1;
nodes = (
"395 700 LINE",
"395 570 LINE",
"790 570 LINE",
"790 700 LINE"
);
},
{
closed = 0;
nodes = (
"500 350 LINE"
);
},
{
closed = 1;
nodes = (
"395 415 LINE",
"395 285 LINE",
"790 285 LINE",
"790 415 LINE"
);
}
);
width = 880;
}
);
unicode = 00C6;
},
{
glyphname = B;
lastChange = "2021-04-12 10:39:08 +0000";
layers = (
{
layerId = "A833981A-68C5-4528-81CD-92C717829696";
paths = (
{
closed = 1;
nodes = (
"90 0 LINE",
"220 0 LINE",
"220 700 LINE",
"90 700 LINE"
);
},
{
closed = 1;
nodes = (
"345 280 LINE",
"345 410 LINE",
"159 410 LINE",
"159 280 LINE"
);
},
{
closed = 1;
nodes = (
"345 570 LINE",
"345 700 LINE",
"159 700 LINE",
"159 570 LINE"
);
},
{
closed = 1;
nodes = (
"345 280 LINE",
"566 280 OFFCURVE",
"565 700 OFFCURVE",
"345 700 CURVE",
"345 570 LINE",
"410 570 OFFCURVE",
"410 410 OFFCURVE",
"345 410 CURVE"
);
},
{
closed = 1;
nodes = (
"366 0 LINE",
"585 0 OFFCURVE",
"584 410 OFFCURVE",
"366 410 CURVE",
"345 280 LINE",
"410 280 OFFCURVE",
"410 129 OFFCURVE",
"345 129 CURVE"
);
},
{
closed = 1;
nodes = (
"366 0 LINE",
"345 129 LINE",
"191 130 LINE",
"191 0 LINE"
);
}
);
width = 600;
}
);
unicode = 0042;
},
{
glyphname = C;
lastChange = "2021-04-12 16:50:06 +0000";
layers = (
{
layerId = "A833981A-68C5-4528-81CD-92C717829696";
paths = (
{
closed = 1;
nodes = (
"496.433 0 OFFCURVE",
"580.636 87.462 OFFCURVE",
"618.742 200.555 CURVE",
"492.389 272.327 LINE",
"475.972 194.061 OFFCURVE",
"433.842 131 OFFCURVE",
"366 131 CURVE SMOOTH",
"187 131 OFFCURVE",
"187 570 OFFCURVE",
"366 569 CURVE SMOOTH",
"426.787 569.34 OFFCURVE",
"466.931 518.938 OFFCURVE",
"486.432 452.218 CURVE",
"610.014 522.359 LINE",
"568.521 624.137 OFFCURVE",
"487.148 700 OFFCURVE",
"366 700 CURVE SMOOTH",
"-2 700 OFFCURVE",
"-3 0 OFFCURVE",
"366 0 CURVE SMOOTH"
);
}
);
width = 709;
}
);
unicode = 0043;
},
{
glyphname = Ccedilla;
lastChange = "2021-04-12 16:50:01 +0000";
layers = (
{
layerId = "A833981A-68C5-4528-81CD-92C717829696";
paths = (
{
closed = 1;
nodes = (
"290 -32 OFFCURVE",
"254 -90 OFFCURVE",
"176 -90 CURVE",
"274 -158 LINE",
"386 -159 OFFCURVE",
"428 -33 OFFCURVE",
"428 11 CURVE",
"290 11 LINE"
);
},
{
closed = 1;
nodes = (
"496.433 0 OFFCURVE",
"580.636 87.462 OFFCURVE",
"618.742 200.555 CURVE",
"492.389 272.327 LINE",
"475.972 194.061 OFFCURVE",
"433.842 131 OFFCURVE",
"366 131 CURVE SMOOTH",
"187 131 OFFCURVE",
"187 570 OFFCURVE",
"366 569 CURVE SMOOTH",
"426.787 569.34 OFFCURVE",
"466.931 518.938 OFFCURVE",
"486.432 452.218 CURVE",
"610.014 522.359 LINE",
"568.521 624.137 OFFCURVE",
"487.148 700 OFFCURVE",
"366 700 CURVE SMOOTH",
"-2 700 OFFCURVE",
"-3 0 OFFCURVE",
"366 0 CURVE SMOOTH"
);
}
);
width = 709;
}
);
unicode = 00C7;
},
{
glyphname = D;
lastChange = "2021-04-12 10:45:43 +0000";
layers = (
{
layerId = "A833981A-68C5-4528-81CD-92C717829696";
paths = (
{
closed = 1;
nodes = (
"90 0 LINE",
"220 0 LINE",
"220 700 LINE",
"90 700 LINE"
);
},
{
closed = 1;
nodes = (
"114 131 LINE",
"114 0 LINE",
"316 0 LINE",
"316 131 LINE"
);
},
{
closed = 1;
nodes = (
"114 700 LINE",
"114 569 LINE",
"316 569 LINE",
"316 700 LINE"
);
},
{
closed = 0;
nodes = (
"316 0 LINE"
);
},
{
closed = 1;
nodes = (
"316 0 LINE",
"685 0 OFFCURVE",
"684 700 OFFCURVE",
"316 700 CURVE",
"316 569 LINE",
"495 570 OFFCURVE",
"495 131 OFFCURVE",
"316 131 CURVE"
);
}
);
width = 682;
}
);
unicode = 0044;
},
{
glyphname = Eth;
lastChange = "2021-04-13 09:32:56 +0000";
layers = (
{
layerId = "A833981A-68C5-4528-81CD-92C717829696";
paths = (
{
closed = 1;
nodes = (
"90 0 LINE",
"220 0 LINE",
"220 700 LINE",
"90 700 LINE"
);
},
{
closed = 1;
nodes = (
"114 131 LINE",
"114 0 LINE",
"316 0 LINE",
"316 131 LINE"
);
},
{
closed = 1;
nodes = (
"114 700 LINE",
"114 569 LINE",
"316 569 LINE",
"316 700 LINE"
);
},
{
closed = 0;
nodes = (
"316 0 LINE"
);
},
{
closed = 1;
nodes = (
"316 0 LINE",
"685 0 OFFCURVE",
"684 700 OFFCURVE",
"316 700 CURVE",
"316 569 LINE",
"495 570 OFFCURVE",
"495 131 OFFCURVE",
"316 131 CURVE"
);
},
{
closed = 1;
nodes = (
"60 265 LINE",
"323 265 LINE",
"323 415 LINE",
"60 415 LINE"
);
}
);
width = 600;
}
);
unicode = 00D0;
},
{
glyphname = E;
lastChange = "2021-04-12 10:50:35 +0000";
layers = (
{
layerId = "A833981A-68C5-4528-81CD-92C717829696";
paths = (
{
closed = 1;
nodes = (
"90 0 LINE",
"220 0 LINE",
"220 700 LINE",
"90 700 LINE"
);
},
{
closed = 1;
nodes = (
"114 130 LINE",
"114 0 LINE",
"510 0 LINE",
"510 130 LINE"
);
},
{
closed = 1;
nodes = (
"115 700 LINE",
"115 570 LINE",
"510 570 LINE",
"510 700 LINE"
);
},
{
closed = 0;
nodes = (
"220 350 LINE"
);
},
{
closed = 1;
nodes = (
"115 415 LINE",
"115 285 LINE",
"510 285 LINE",
"510 415 LINE"
);
}
);
width = 600;
}
);
unicode = 0045;
},
{
glyphname = F;
lastChange = "2021-04-12 10:50:47 +0000";
layers = (
{
layerId = "A833981A-68C5-4528-81CD-92C717829696";
paths = (
{
closed = 1;
nodes = (
"90 0 LINE",
"220 0 LINE",
"220 700 LINE",
"90 700 LINE"
);
},
{
closed = 1;
nodes = (
"115 700 LINE",
"115 570 LINE",
"510 570 LINE",
"510 700 LINE"
);
},
{
closed = 0;
nodes = (
"220 350 LINE"
);
},
{
closed = 1;
nodes = (
"115 415 LINE",
"115 285 LINE",
"510 285 LINE",
"510 415 LINE"
);
}
);
width = 600;
}
);
unicode = 0046;
},
{
glyphname = G;
lastChange = "2021-04-12 16:54:37 +0000";
layers = (
{
layerId = "A833981A-68C5-4528-81CD-92C717829696";
paths = (
{
closed = 1;
nodes = (
"619 409 LINE",
"489 409 LINE",
"492 272 LINE",
"619 201 LINE"
);
},
{
closed = 1;
nodes = (
"577 272 LINE",
"577 409 LINE",
"330 409 LINE",
"330 272 LINE"
);
},
{
closed = 1;
nodes = (
"496.433 0 OFFCURVE",
"581 88 OFFCURVE",
"619 201 CURVE",
"492.389 272.327 LINE",
"475.972 194.061 OFFCURVE",
"433.842 131 OFFCURVE",
"366 131 CURVE SMOOTH",
"187 131 OFFCURVE",
"187 570 OFFCURVE",
"366 569 CURVE SMOOTH",
"426.787 569.34 OFFCURVE",
"466.931 518.938 OFFCURVE",
"486.432 452.218 CURVE",
"610.014 522.359 LINE",
"568.521 624.137 OFFCURVE",
"487.148 700 OFFCURVE",
"366 700 CURVE SMOOTH",
"-2 700 OFFCURVE",
"-3 0 OFFCURVE",
"366 0 CURVE SMOOTH"
);
}
);
width = 709;
}
);
unicode = 0047;
},
{
glyphname = H;
lastChange = "2021-04-12 10:09:56 +0000";
layers = (
{
layerId = "A833981A-68C5-4528-81CD-92C717829696";
paths = (
{
closed = 1;
nodes = (
"90 0 LINE",
"220 0 LINE",
"220 700 LINE",
"90 700 LINE"
);
},
{
closed = 1;
nodes = (
"380 0 LINE",
"510 0 LINE",
"510 700 LINE",
"380 700 LINE"
);
},
{
closed = 1;
nodes = (
"92 370 LINE",
"507 370 LINE",
"507 500 LINE",
"92 500 LINE"
);
}
);
width = 600;
}
);
unicode = 0048;
},
{
glyphname = Hbar;
lastChange = "2021-04-12 17:44:03 +0000";
layers = (
{
components = (
{
name = H;
}
);
layerId = "A833981A-68C5-4528-81CD-92C717829696";
paths = (
{
closed = 1;
nodes = (
"56 553 LINE",
"544 553 LINE",
"544 623 LINE",
"56 623 LINE"
);
}
);
width = 600;
}
);
unicode = 0126;
},
{
glyphname = I;
lastChange = "2021-04-12 15:21:48 +0000";
layers = (
{
layerId = "A833981A-68C5-4528-81CD-92C717829696";
paths = (
{
closed = 1;
nodes = (
"90 0 LINE",
"220 0 LINE",
"220 700 LINE",
"90 700 LINE"
);
}
);
width = 310;
}
);
unicode = 0049;
},
{
glyphname = J;
lastChange = "2021-04-12 17:03:39 +0000";
layers = (
{
layerId = "A833981A-68C5-4528-81CD-92C717829696";
paths = (
{
closed = 1;
nodes = (
"265 0 OFFCURVE",
"440 37 OFFCURVE",
"440 221 CURVE",
"310 221 LINE",
"310 131 OFFCURVE",
"200 130 OFFCURVE",
"90 130 CURVE",
"90 0 LINE"
);
},
{
closed = 1;
nodes = (
"440 221 LINE",
"440 700 LINE",
"310 700 LINE",
"310 221 LINE"
);
}
);
width = 530;
}
);
unicode = 004A;
},
{
glyphname = K;
lastChange = "2021-04-12 17:26:06 +0000";
layers = (
{
layerId = "A833981A-68C5-4528-81CD-92C717829696";
paths = (
{
closed = 1;
nodes = (
"90 0 LINE",
"220 0 LINE",
"220 700 LINE",
"90 700 LINE"
);
},
{
closed = 1;
nodes = (
"510 700 LINE",
"380 700 LINE",
"220 430 LINE",
"220 220 LINE"
);
},
{
closed = 1;
nodes = (
"217 325 LINE",
"366 0 LINE",
"510 0 LINE",
"305 465 LINE"
);
}
);
width = 600;
}
);
unicode = 004B;
},
{
glyphname = L;
lastChange = "2021-04-12 10:48:11 +0000";
layers = (
{
layerId = "A833981A-68C5-4528-81CD-92C717829696";
paths = (
{
closed = 1;
nodes = (
"90 0 LINE",
"220 0 LINE",
"220 700 LINE",
"90 700 LINE"
);
},
{
closed = 1;
nodes = (
"114 130 LINE",
"114 0 LINE",
"510 0 LINE",
"510 130 LINE"
);
}
);
width = 600;
}
);
unicode = 004C;
},
{
glyphname = M;
lastChange = "2021-04-12 10:15:27 +0000";
layers = (
{
layerId = "A833981A-68C5-4528-81CD-92C717829696";
paths = (
{
closed = 1;
nodes = (
"90 0 LINE",
"220 0 LINE",
"220 700 LINE",
"90 700 LINE"
);
},
{
closed = 1;
nodes = (
"540 0 LINE",
"670 0 LINE",
"670 700 LINE",
"540 700 LINE"
);
},
{
closed = 1;
nodes = (
"220 400 LINE",
"380 0 LINE",
"380 300 LINE",
"220 700 LINE"
);
},
{
closed = 1;
nodes = (
"380 300 LINE",
"380 0 LINE",
"540 400 LINE",
"540 700 LINE"
);
}
);
width = 760;
}
);
unicode = 004D;
},
{
glyphname = N;
lastChange = "2021-04-12 10:13:48 +0000";
layers = (
{
layerId = "A833981A-68C5-4528-81CD-92C717829696";
paths = (
{
closed = 1;
nodes = (
"90 0 LINE",
"220 0 LINE",
"220 700 LINE",
"90 700 LINE"
);
},
{
closed = 1;
nodes = (
"380 0 LINE",
"510 0 LINE",
"510 700 LINE",
"380 700 LINE"
);
},
{
closed = 1;
nodes = (
"220 400 LINE",
"380 0 LINE",
"380 300 LINE",
"220 700 LINE"
);
}
);
width = 600;
}
);
unicode = 004E;
},
{
glyphname = O;
lastChange = "2021-04-12 16:14:09 +0000";
layers = (
{
layerId = "A833981A-68C5-4528-81CD-92C717829696";
paths = (
{
closed = 0;
nodes = (
"366 0 LINE"
);
},
{
closed = 1;
nodes = (
"366 0 LINE",
"735 0 OFFCURVE",
"734 700 OFFCURVE",
"366 700 CURVE",
"366 569 LINE",
"545 570 OFFCURVE",
"545 131 OFFCURVE",
"366 131 CURVE"
);
},
{
closed = 0;
nodes = (
"366 0 LINE"
);
},
{
closed = 1;
nodes = (
"187 131 OFFCURVE",
"187 570 OFFCURVE",
"366 569 CURVE",
"366 700 LINE",
"-2 700 OFFCURVE",
"-3 0 OFFCURVE",
"366 0 CURVE",
"366 131 LINE"
);
}
);
width = 732;
}
);
unicode = 004F;
},
{
glyphname = Odieresis;
lastChange = "2021-04-13 08:25:10 +0000";
layers = (
{
components = (
{
name = dieresiscomb;
transform = "{1, 0, 0, 1, 65, 200}";
}
);
layerId = "A833981A-68C5-4528-81CD-92C717829696";
paths = (
{
closed = 0;
nodes = (
"366 0 LINE"
);
},
{
closed = 1;
nodes = (
"366 0 LINE",
"735 0 OFFCURVE",
"734 700 OFFCURVE",
"366 700 CURVE",
"366 569 LINE",
"545 570 OFFCURVE",
"545 131 OFFCURVE",
"366 131 CURVE"
);
},
{
closed = 0;
nodes = (
"366 0 LINE"
);
},
{
closed = 1;
nodes = (
"187 131 OFFCURVE",
"187 570 OFFCURVE",
"366 569 CURVE",
"366 700 LINE",
"-2 700 OFFCURVE",
"-3 0 OFFCURVE",
"366 0 CURVE",
"366 131 LINE"
);
}
);
width = 732;
}
);
unicode = 00D6;
},
{
glyphname = OE;
lastChange = "2021-04-13 09:36:14 +0000";
layers = (
{
layerId = "A833981A-68C5-4528-81CD-92C717829696";
paths = (
{
closed = 0;
nodes = (
"366 0 LINE"
);
},
{
closed = 1;
nodes = (
"366 0 LINE",
"735 0 OFFCURVE",
"734 700 OFFCURVE",
"366 700 CURVE",
"366 569 LINE",
"545 570 OFFCURVE",
"545 131 OFFCURVE",
"366 131 CURVE"
);
},
{
closed = 0;
nodes = (
"366 0 LINE"
);
},
{
closed = 1;
nodes = (
"187 131 OFFCURVE",
"187 570 OFFCURVE",
"366 569 CURVE",
"366 700 LINE",
"-2 700 OFFCURVE",
"-3 0 OFFCURVE",
"366 0 CURVE",
"366 131 LINE"
);
},
{
closed = 1;
nodes = (
"545 0 LINE",
"675 0 LINE",
"675 700 LINE",
"545 700 LINE"
);
},
{
closed = 1;
nodes = (
"569 130 LINE",
"569 0 LINE",
"965 0 LINE",
"965 130 LINE"
);
},
{
closed = 1;
nodes = (
"570 700 LINE",
"570 570 LINE",
"965 570 LINE",
"965 700 LINE"
);
},
{
closed = 0;
nodes = (
"675 350 LINE"
);
},
{
closed = 1;
nodes = (
"570 415 LINE",
"570 285 LINE",
"965 285 LINE",
"965 415 LINE"
);
}
);
width = 1102;
}
);
unicode = 0152;
},
{
glyphname = P;
lastChange = "2021-04-12 10:27:24 +0000";
layers = (
{
layerId = "A833981A-68C5-4528-81CD-92C717829696";
paths = (
{
closed = 1;
nodes = (
"90 0 LINE",
"220 0 LINE",
"220 700 LINE",
"90 700 LINE"
);
},
{
closed = 1;
nodes = (
"345 280 LINE",
"345 410 LINE",
"159 410 LINE",
"159 280 LINE"
);
},
{
closed = 1;
nodes = (
"345 570 LINE",
"345 700 LINE",
"159 700 LINE",
"159 570 LINE"
);
},
{
closed = 1;
nodes = (
"345 280 LINE",
"566 281 OFFCURVE",
"565 701 OFFCURVE",
"345 700 CURVE",
"345 570 LINE",
"410 570 OFFCURVE",
"410 410 OFFCURVE",
"345 410 CURVE"
);
}
);
width = 600;
}
);
unicode = 0050;
},
{
glyphname = Thorn;
lastChange = "2021-04-12 17:47:15 +0000";
layers = (
{
layerId = "A833981A-68C5-4528-81CD-92C717829696";
paths = (
{
closed = 1;
nodes = (
"90 0 LINE",
"220 0 LINE",
"220 700 LINE",
"90 700 LINE"
);
},
{
closed = 1;
nodes = (
"345 190 LINE",
"345 320 LINE",
"159 320 LINE",
"159 190 LINE"
);
},
{
closed = 1;
nodes = (
"345 480 LINE",
"345 610 LINE",
"159 610 LINE",
"159 480 LINE"
);
},
{
closed = 1;
nodes = (
"345 190 LINE",
"566 191 OFFCURVE",
"565 611 OFFCURVE",
"345 610 CURVE",
"345 480 LINE",
"410 480 OFFCURVE",
"410 320 OFFCURVE",
"345 320 CURVE"
);
}
);
width = 600;
}
);
unicode = 00DE;
},
{
glyphname = Q;
lastChange = "2021-04-13 09:37:14 +0000";
layers = (
{
layerId = "A833981A-68C5-4528-81CD-92C717829696";
paths = (
{
closed = 0;
nodes = (
"366 0 LINE"
);
},
{
closed = 1;
nodes = (
"366 0 LINE",
"735 0 OFFCURVE",
"734 700 OFFCURVE",
"366 700 CURVE",
"366 569 LINE",
"545 570 OFFCURVE",
"545 131 OFFCURVE",
"366 131 CURVE"
);
},
{
closed = 0;
nodes = (
"366 0 LINE"
);
},
{
closed = 1;
nodes = (
"187 131 OFFCURVE",
"187 570 OFFCURVE",
"366 569 CURVE",
"366 700 LINE",
"-2 700 OFFCURVE",
"-3 0 OFFCURVE",
"366 0 CURVE",
"366 131 LINE"
);
},
{
closed = 1;
nodes = (
"576 -75 LINE",
"688 44 LINE",
"578 162 LINE",
"468 44 LINE"
);
}
);
width = 732;
}
);
unicode = 0051;
},
{
glyphname = R;
lastChange = "2021-04-12 10:44:04 +0000";
layers = (
{
layerId = "A833981A-68C5-4528-81CD-92C717829696";
paths = (
{
closed = 1;
nodes = (
"90 0 LINE",
"220 0 LINE",
"220 700 LINE",
"90 700 LINE"
);
},
{
closed = 1;
nodes = (
"345 280 LINE",
"345 410 LINE",
"159 410 LINE",
"159 280 LINE"
);
},
{
closed = 1;
nodes = (
"345 570 LINE",
"345 700 LINE",
"159 700 LINE",
"159 570 LINE"
);
},
{
closed = 1;
nodes = (
"345 280 LINE",
"566 281 OFFCURVE",
"565 700 OFFCURVE",
"345 700 CURVE",
"345 570 LINE",
"410 570 OFFCURVE",
"410 410 OFFCURVE",
"345 410 CURVE"
);
},
{
closed = 1;
nodes = (
"388 0 LINE",
"528 0 LINE",
"419 322 LINE",
"279 322 LINE"
);
}
);
width = 600;
}
);
unicode = 0052;
},
{
glyphname = S;
lastChange = "2021-04-12 15:38:27 +0000";
layers = (
{
layerId = "A833981A-68C5-4528-81CD-92C717829696";
paths = (
{
closed = 1;
nodes = (
"438 412 OFFCURVE",
"539 322 OFFCURVE",
"539 207 CURVE SMOOTH",
"539 91 OFFCURVE",
"438 0 OFFCURVE",
"316 0 CURVE SMOOTH",
"191 0 OFFCURVE",
"90 91 OFFCURVE",
"90 207 CURVE",
"218 207 LINE",
"218 170 OFFCURVE",
"263 119 OFFCURVE",
"316 119 CURVE SMOOTH",
"368 119 OFFCURVE",
"410 170 OFFCURVE",
"410 207 CURVE SMOOTH",
"410 242 OFFCURVE",
"368 287 OFFCURVE",
"316 287 CURVE",
"316 412 LINE"
);
},
{
closed = 1;
nodes = (
"194 287 OFFCURVE",
"93 378 OFFCURVE",
"93 493 CURVE SMOOTH",
"93 610 OFFCURVE",
"194 700 OFFCURVE",
"316 700 CURVE SMOOTH",
"441 700 OFFCURVE",
"542 610 OFFCURVE",
"542 493 CURVE",
"414 493 LINE",
"414 528 OFFCURVE",
"369 580 OFFCURVE",
"316 580 CURVE SMOOTH",
"264 580 OFFCURVE",
"222 528 OFFCURVE",
"222 493 CURVE SMOOTH",
"222 455 OFFCURVE",
"264 412 OFFCURVE",
"316 412 CURVE",
"316 287 LINE"
);
}
);
width = 632;
}
);
unicode = 0053;
},
{
glyphname = Scedilla;
lastChange = "2021-04-12 17:10:30 +0000";
layers = (
{
components = (
{
name = cedillacomb;
transform = "{1, 0, 0, 1, 26, 0}";
}
);
layerId = "A833981A-68C5-4528-81CD-92C717829696";
paths = (
{
closed = 1;
nodes = (
"316 287 LINE",
"368 287 OFFCURVE",
"410 242 OFFCURVE",
"410 207 CURVE SMOOTH",
"410 170 OFFCURVE",
"368 119 OFFCURVE",
"316 119 CURVE SMOOTH",
"263 119 OFFCURVE",
"218 170 OFFCURVE",
"218 207 CURVE",
"90 207 LINE",
"90 91 OFFCURVE",
"191 0 OFFCURVE",
"316 0 CURVE SMOOTH",
"438 0 OFFCURVE",
"539 91 OFFCURVE",
"539 207 CURVE SMOOTH",
"539 322 OFFCURVE",
"438 412 OFFCURVE",
"316 412 CURVE"
);
},
{
closed = 1;
nodes = (
"194 287 OFFCURVE",
"93 378 OFFCURVE",
"93 493 CURVE SMOOTH",
"93 610 OFFCURVE",
"194 700 OFFCURVE",
"316 700 CURVE SMOOTH",
"441 700 OFFCURVE",
"542 610 OFFCURVE",
"542 493 CURVE",
"414 493 LINE",
"414 528 OFFCURVE",
"369 580 OFFCURVE",
"316 580 CURVE SMOOTH",
"264 580 OFFCURVE",
"222 528 OFFCURVE",
"222 493 CURVE SMOOTH",
"222 455 OFFCURVE",
"264 412 OFFCURVE",
"316 412 CURVE",
"316 287 LINE"
);
}
);
width = 632;
}
);
unicode = 015E;
},
{
glyphname = T;
lastChange = "2021-04-12 15:30:06 +0000";
layers = (
{
layerId = "A833981A-68C5-4528-81CD-92C717829696";
paths = (
{
closed = 1;
nodes = (
"225 0 LINE",
"355 0 LINE",
"355 700 LINE",
"225 700 LINE"
);
},
{
closed = 1;
nodes = (
"80 700 LINE",
"80 570 LINE",
"500 570 LINE",
"500 700 LINE"
);
}
);
width = 580;
}
);
unicode = 0054;
},
{
glyphname = U;
lastChange = "2021-04-12 10:27:03 +0000";
layers = (
{
layerId = "A833981A-68C5-4528-81CD-92C717829696";
paths = (
{
closed = 1;
nodes = (
"90 165 LINE",
"220 165 LINE",
"220 700 LINE",
"90 700 LINE"
);
},
{
closed = 1;
nodes = (
"380 165 LINE",
"510 165 LINE",
"510 700 LINE",
"380 700 LINE"
);
},
{
closed = 1;
nodes = (
"90 165 LINE",
"91 -56 OFFCURVE",
"511 -55 OFFCURVE",
"510 165 CURVE",
"380 165 LINE",
"380 100 OFFCURVE",
"220 100 OFFCURVE",
"220 165 CURVE"
);
}
);
width = 600;
}
);
unicode = 0055;
},
{
glyphname = Udieresis;
lastChange = "2021-04-12 15:39:52 +0000";
layers = (
{
components = (
{
name = dieresiscomb;
transform = "{1, 0, 0, 1, 0, 200}";
}
);
layerId = "A833981A-68C5-4528-81CD-92C717829696";
paths = (
{
closed = 1;
nodes = (
"90 165 LINE",
"220 165 LINE",
"220 700 LINE",
"90 700 LINE"
);
},
{
closed = 1;
nodes = (
"380 165 LINE",
"510 165 LINE",
"510 700 LINE",
"380 700 LINE"
);
},
{
closed = 1;
nodes = (
"90 165 LINE",
"91 -56 OFFCURVE",
"511 -55 OFFCURVE",
"510 165 CURVE",
"380 165 LINE",
"380 100 OFFCURVE",
"220 100 OFFCURVE",
"220 165 CURVE"
);
}
);
width = 600;
}
);
unicode = 00DC;
},
{
glyphname = V;
lastChange = "2021-04-12 17:31:10 +0000";
layers = (
{
layerId = "A833981A-68C5-4528-81CD-92C717829696";
paths = (
{
closed = 1;
nodes = (
"355 0 LINE",
"210 700 LINE",
"80 700 LINE",
"225 0 LINE"
);
},
{
closed = 1;
nodes = (
"500 700 LINE",
"370 700 LINE",
"225 0 LINE",
"355 0 LINE"
);
}
);
width = 580;
}
);
unicode = 0056;
},
{
glyphname = W;
lastChange = "2021-04-12 18:38:39 +0000";
layers = (
{
layerId = "A833981A-68C5-4528-81CD-92C717829696";
paths = (
{
closed = 1;
nodes = (
"355 0 LINE",
"210 700 LINE",
"80 700 LINE",
"225 0 LINE"
);
},
{
closed = 1;
nodes = (
"500 700 LINE",
"370 700 LINE",
"225 0 LINE",
"355 0 LINE"
);
},
{
closed = 1;
nodes = (
"645 0 LINE",
"500 700 LINE",
"370 700 LINE",
"515 0 LINE"
);
},
{
closed = 1;
nodes = (
"790 700 LINE",
"660 700 LINE",
"515 0 LINE",
"645 0 LINE"
);
}
);
width = 870;
}
);
unicode = 0057;
},
{
glyphname = X;
lastChange = "2021-04-13 09:27:31 +0000";
layers = (
{
layerId = "A833981A-68C5-4528-81CD-92C717829696";
paths = (
{
closed = 1;
nodes = (
"386 0 LINE",
"517 0 LINE",
"210 700 LINE",
"91 700 LINE"
);
},
{
closed = 1;
nodes = (
"90 0 LINE",
"220 0 LINE",
"517 630 LINE",
"386 630 LINE"
);
},
{
closed = 1;
nodes = (
"386 630 LINE",
"517 630 LINE",
"517 700 LINE",
"386 700 LINE"
);
}
);
width = 600;
}
);
unicode = 0058;
},
{
glyphname = Y;
lastChange = "2021-04-12 17:31:00 +0000";
layers = (
{
layerId = "A833981A-68C5-4528-81CD-92C717829696";
paths = (
{
closed = 1;
nodes = (
"355 286 LINE",
"210 700 LINE",
"80 700 LINE",
"225 286 LINE"
);
},
{
closed = 1;
nodes = (
"500 700 LINE",
"370 700 LINE",
"225 286 LINE",
"355 286 LINE"
);
},
{
closed = 1;
nodes = (
"225 0 LINE",
"355 0 LINE",
"355 286 LINE",
"225 286 LINE"
);
}
);
width = 580;
}
);
unicode = 0059;
},
{
glyphname = Z;
lastChange = "2021-04-12 17:17:23 +0000";
layers = (
{
layerId = "A833981A-68C5-4528-81CD-92C717829696";
paths = (
{
closed = 1;
nodes = (
"90 130 LINE",
"220 130 LINE",
"510 570 LINE",
"380 570 LINE"
);
},
{
closed = 1;
nodes = (
"90 130 LINE",
"90 0 LINE",
"510 0 LINE",
"510 130 LINE"
);
},
{
closed = 1;
nodes = (
"110 700 LINE",
"110 570 LINE",
"510 570 LINE",
"510 700 LINE"
);
},
{
closed = 0;
nodes = (
"220 350 LINE"
);
}
);
width = 600;
}
);
unicode = 005A;
},
{
glyphname = a;
lastChange = "2021-04-12 07:22:05 +0000";
layers = (
{
layerId = "A833981A-68C5-4528-81CD-92C717829696";
paths = (
{
closed = 1;
nodes = (
"350 252 OFFCURVE",
"367 232 OFFCURVE",
"367 174 CURVE",
"498 174 LINE",
"498 344 OFFCURVE",
"383 339 OFFCURVE",
"283 339 CURVE",
"287 252 LINE"
);
},
{
closed = 1;
nodes = (
"498 174 LINE"
);
},
{
closed = 1;
nodes = (
"283 0 LINE"
);
},
{
closed = 1;
nodes = (
"498 174 LINE"
);
},
{
closed = 1;
nodes = (
"283 0 LINE",
"384 10 OFFCURVE",
"498 73 OFFCURVE",
"498 174 CURVE",
"367 174 LINE",
"367 122 OFFCURVE",
"330 101 OFFCURVE",
"267 101 CURVE"
);
},
{
closed = 1;
nodes = (
"239 101 OFFCURVE",
"201 112 OFFCURVE",
"201 174 CURVE",
"90 174 LINE",
"90 4 OFFCURVE",
"183 0 OFFCURVE",
"283 0 CURVE",
"283 101 LINE"
);
},
{
closed = 1;
nodes = (
"305 339 LINE",
"205 339 OFFCURVE",
"90 344 OFFCURVE",
"90 174 CURVE",
"201 174 LINE",
"201 203 OFFCURVE",
"202 253 OFFCURVE",
"305 252 CURVE"
);
},
{
closed = 1;
nodes = (
"144 398 LINE",
"347 421 OFFCURVE",
"397 396 OFFCURVE",
"397 331 CURVE",
"498 174 LINE",
"498 471 OFFCURVE",
"459 550 OFFCURVE",
"144 500 CURVE"
);
},
{
closed = 1;
nodes = (
"399 0 LINE",
"497 0 LINE",
"498 174 LINE",
"398 100 LINE"
);
}
);
width = 588;
}
);
unicode = 0061;
},
{
glyphname = ae;
lastChange = "2021-04-13 09:38:19 +0000";
layers = (
{
layerId = "A833981A-68C5-4528-81CD-92C717829696";
paths = (
{
closed = 1;
nodes = (
"350 252 OFFCURVE",
"367 232 OFFCURVE",
"367 174 CURVE",
"498 174 LINE",
"498 344 OFFCURVE",
"383 339 OFFCURVE",
"283 339 CURVE",
"287 252 LINE"
);
},
{
closed = 1;
nodes = (
"498 174 LINE"
);
},
{
closed = 1;
nodes = (
"283 0 LINE"
);
},
{
closed = 1;
nodes = (
"498 174 LINE"
);
},
{
closed = 1;
nodes = (
"283 0 LINE",
"384 10 OFFCURVE",
"498 73 OFFCURVE",
"498 174 CURVE",
"367 174 LINE",
"367 122 OFFCURVE",
"330 101 OFFCURVE",
"267 101 CURVE"
);
},
{
closed = 1;
nodes = (
"239 101 OFFCURVE",
"201 112 OFFCURVE",
"201 174 CURVE",
"90 174 LINE",
"90 4 OFFCURVE",
"183 0 OFFCURVE",
"283 0 CURVE",
"283 101 LINE"
);
},
{
closed = 1;
nodes = (
"305 339 LINE",
"205 339 OFFCURVE",
"90 344 OFFCURVE",
"90 174 CURVE",
"201 174 LINE",
"201 203 OFFCURVE",
"202 253 OFFCURVE",
"305 252 CURVE"
);
},
{
closed = 1;
nodes = (
"144 398 LINE",
"347 421 OFFCURVE",
"397 396 OFFCURVE",
"397 331 CURVE",
"498 174 LINE",
"498 471 OFFCURVE",
"459 550 OFFCURVE",
"144 500 CURVE"
);
},
{
closed = 1;
nodes = (
"399 0 LINE",
"497 0 LINE",
"498 174 LINE",
"398 100 LINE"
);
},
{
closed = 1;
nodes = (
"539 210 LINE",
"539 290 LINE",
"410 290 LINE",
"410 210 LINE"
);
},
{
closed = 0;
nodes = (
"539 28 LINE"
);
},
{
closed = 0;
nodes = (
"539 28 LINE"
);
},
{
closed = 0;
nodes = (
"539 28 LINE"
);
},
{
closed = 1;
nodes = (
"614 0 LINE",
"736 0 OFFCURVE",
"776 24 OFFCURVE",
"805 85 CURVE",
"722 157 LINE",
"696 119 OFFCURVE",
"637 128 OFFCURVE",
"604 128 CURVE"
);
},
{
closed = 1;
nodes = (
"556 128 OFFCURVE",
"539 157 OFFCURVE",
"539 210 CURVE",
"410 210 LINE",
"410 85 OFFCURVE",
"504 0 OFFCURVE",
"614 0 CURVE",
"604 128 LINE"
);
},
{
closed = 1;
nodes = (
"667 372 OFFCURVE",
"698 354 OFFCURVE",
"698 300 CURVE",
"829 300 LINE",
"829 434 OFFCURVE",
"714 500 OFFCURVE",
"614 500 CURVE",
"604 372 LINE"
);
},
{
closed = 1;
nodes = (
"614 500 LINE",
"504 500 OFFCURVE",
"410 415 OFFCURVE",
"410 290 CURVE",
"539 290 LINE",
"539 343 OFFCURVE",
"556 372 OFFCURVE",
"604 372 CURVE"
);
},
{
closed = 1;
nodes = (
"525 219 LINE",
"829 220 LINE",
"829 300 LINE",
"525 300 LINE"
);
}
);
width = 919;
}
);
unicode = 00E6;
},
{
glyphname = b;
lastChange = "2021-04-11 20:41:29 +0000";
layers = (
{
layerId = "A833981A-68C5-4528-81CD-92C717829696";
paths = (
{
closed = 1;
nodes = (
"209 0 LINE",
"220 28 LINE",
"220 700 LINE",
"90 700 LINE",
"90 0 LINE"
);
},
{
closed = 1;
nodes = (
"510 210 LINE",
"510 254 LINE",
"379 254 LINE",
"379 210 LINE"
);
},
{
closed = 1;
nodes = (
"295 0 LINE",
"395 0 OFFCURVE",
"510 40 OFFCURVE",
"510 210 CURVE",
"379 210 LINE",
"379 136 OFFCURVE",
"348 128 OFFCURVE",
"285 128 CURVE"
);
},
{
closed = 1;
nodes = (
"237 128 OFFCURVE",
"220 157 OFFCURVE",
"220 210 CURVE",
"145 210 LINE",
"145 85 OFFCURVE",
"185 0 OFFCURVE",
"295 0 CURVE",
"285 128 LINE"
);
},
{
closed = 0;
nodes = (
"209 0 LINE",
"220 28 LINE"
);
},
{
closed = 1;
nodes = (
"510 210 LINE",
"510 254 LINE",
"379 254 LINE",
"379 210 LINE"
);
},
{
closed = 1;
nodes = (
"295 0 LINE",
"395 0 OFFCURVE",
"510 40 OFFCURVE",
"510 210 CURVE",
"379 210 LINE",
"379 136 OFFCURVE",
"348 128 OFFCURVE",
"285 128 CURVE"
);
},
{
closed = 1;
nodes = (
"237 128 OFFCURVE",
"220 157 OFFCURVE",
"220 210 CURVE",
"145 210 LINE",
"145 85 OFFCURVE",
"185 0 OFFCURVE",
"295 0 CURVE",
"285 128 LINE"
);
},
{
closed = 0;
nodes = (
"220 28 LINE"
);
},
{
closed = 1;
nodes = (
"510 210 LINE",
"510 254 LINE",
"379 254 LINE",
"379 210 LINE"
);
},
{
closed = 1;
nodes = (
"295 0 LINE",
"395 0 OFFCURVE",
"510 40 OFFCURVE",
"510 210 CURVE",
"379 210 LINE",
"379 136 OFFCURVE",
"348 128 OFFCURVE",
"285 128 CURVE"
);
},
{
closed = 1;
nodes = (
"237 128 OFFCURVE",
"220 157 OFFCURVE",
"220 210 CURVE",
"145 210 LINE",
"145 85 OFFCURVE",
"185 0 OFFCURVE",
"295 0 CURVE",
"285 128 LINE"
);
},
{
closed = 0;
nodes = (
"209 0 LINE",
"220 28 LINE"
);
},
{
closed = 1;
nodes = (
"510 210 LINE",
"510 254 LINE",
"379 254 LINE",
"379 210 LINE"
);
},
{
closed = 1;
nodes = (
"295 0 LINE",
"395 0 OFFCURVE",
"510 40 OFFCURVE",
"510 210 CURVE",
"379 210 LINE",
"379 136 OFFCURVE",
"348 128 OFFCURVE",
"285 128 CURVE"
);
},
{
closed = 1;
nodes = (
"237 128 OFFCURVE",
"220 157 OFFCURVE",
"220 210 CURVE",
"145 210 LINE",
"145 85 OFFCURVE",
"185 0 OFFCURVE",
"295 0 CURVE",
"285 128 LINE"
);
},
{
closed = 0;
nodes = (
"220 472 LINE"
);
},
{
closed = 1;
nodes = (
"379 254 LINE",
"510 254 LINE",
"510 290 LINE",
"379 290 LINE"
);
},
{
closed = 1;
nodes = (
"348 372 OFFCURVE",
"379 364 OFFCURVE",
"379 290 CURVE",
"510 290 LINE",
"510 460 OFFCURVE",
"395 500 OFFCURVE",
"295 500 CURVE",
"285 372 LINE"
);
},
{
closed = 1;
nodes = (
"295 500 LINE",
"185 500 OFFCURVE",
"145 415 OFFCURVE",
"145 290 CURVE",
"220 290 LINE",
"220 343 OFFCURVE",
"237 372 OFFCURVE",
"285 372 CURVE"
);
},
{
closed = 0;
nodes = (
"220 472 LINE",
"209 500 LINE"
);
},
{
closed = 1;
nodes = (
"379 254 LINE",
"510 254 LINE",
"510 290 LINE",
"379 290 LINE"
);
},
{
closed = 1;
nodes = (
"348 372 OFFCURVE",
"379 364 OFFCURVE",
"379 290 CURVE",
"510 290 LINE",
"510 460 OFFCURVE",
"395 500 OFFCURVE",
"295 500 CURVE",
"285 372 LINE"
);
},
{
closed = 1;
nodes = (
"295 500 LINE",
"185 500 OFFCURVE",
"145 415 OFFCURVE",
"145 290 CURVE",
"220 290 LINE",
"220 343 OFFCURVE",
"237 372 OFFCURVE",
"285 372 CURVE"
);
},
{
closed = 0;
nodes = (
"220 472 LINE"
);
},
{
closed = 1;
nodes = (
"379 254 LINE",
"510 254 LINE",
"510 290 LINE",
"379 290 LINE"
);
},
{
closed = 1;
nodes = (
"348 372 OFFCURVE",
"379 364 OFFCURVE",
"379 290 CURVE",
"510 290 LINE",
"510 460 OFFCURVE",
"395 500 OFFCURVE",
"295 500 CURVE",
"285 372 LINE"
);
},
{
closed = 1;
nodes = (
"295 500 LINE",
"185 500 OFFCURVE",
"145 415 OFFCURVE",
"145 290 CURVE",
"220 290 LINE",
"220 343 OFFCURVE",
"237 372 OFFCURVE",
"285 372 CURVE"
);
},
{
closed = 0;
nodes = (
"220 472 LINE",
"209 500 LINE"
);
},
{
closed = 1;
nodes = (
"379 254 LINE",
"510 254 LINE",
"510 290 LINE",
"379 290 LINE"
);
},
{
closed = 1;
nodes = (
"348 372 OFFCURVE",
"379 364 OFFCURVE",
"379 290 CURVE",
"510 290 LINE",
"510 460 OFFCURVE",
"395 500 OFFCURVE",
"295 500 CURVE",
"285 372 LINE"
);
},
{
closed = 1;
nodes = (
"295 500 LINE",
"185 500 OFFCURVE",
"145 415 OFFCURVE",
"145 290 CURVE",
"220 290 LINE",
"220 343 OFFCURVE",
"237 372 OFFCURVE",
"285 372 CURVE"
);
}
);
width = 600;
}
);
unicode = 0062;
},
{
glyphname = c;
lastChange = "2021-04-11 22:20:45 +0000";
layers = (
{
layerId = "A833981A-68C5-4528-81CD-92C717829696";
paths = (
{
closed = 1;
nodes = (
"209 210 LINE",
"209 290 LINE",
"80 290 LINE",
"80 210 LINE"
);
},
{
closed = 0;
nodes = (
"209 28 LINE"
);
},
{
closed = 0;
nodes = (
"209 28 LINE"
);
},
{
closed = 0;
nodes = (
"209 28 LINE"
);
},
{
closed = 1;
nodes = (
"284 0 LINE",
"384 0 OFFCURVE",
"499 33 OFFCURVE",
"499 177 CURVE",
"368 177 LINE",
"368 128 OFFCURVE",
"337 128 OFFCURVE",
"274 128 CURVE"
);
},
{
closed = 1;
nodes = (
"226 128 OFFCURVE",
"209 157 OFFCURVE",
"209 210 CURVE",
"80 210 LINE",
"80 85 OFFCURVE",
"174 0 OFFCURVE",
"284 0 CURVE",
"274 128 LINE"
);
},
{
closed = 1;
nodes = (
"337 372 OFFCURVE",
"368 377 OFFCURVE",
"368 323 CURVE",
"499 323 LINE",
"499 457 OFFCURVE",
"384 500 OFFCURVE",
"284 500 CURVE",
"274 372 LINE"
);
},
{
closed = 1;
nodes = (
"284 500 LINE",
"174 500 OFFCURVE",
"80 415 OFFCURVE",
"80 290 CURVE",
"209 290 LINE",
"209 343 OFFCURVE",
"226 372 OFFCURVE",
"274 372 CURVE"
);
}
);
width = 579;
}
);
unicode = 0063;
},
{
glyphname = ccedilla;
lastChange = "2021-04-12 08:51:09 +0000";
layers = (
{
components = (
{
name = cedillacomb;
}
);
layerId = "A833981A-68C5-4528-81CD-92C717829696";
paths = (
{
closed = 1;
nodes = (
"209 210 LINE",
"209 290 LINE",
"80 290 LINE",
"80 210 LINE"
);
},
{
closed = 0;
nodes = (
"209 28 LINE"
);
},
{
closed = 0;
nodes = (
"209 28 LINE"
);
},
{
closed = 0;
nodes = (
"209 28 LINE"
);
},
{
closed = 1;
nodes = (
"284 0 LINE",
"384 0 OFFCURVE",
"499 33 OFFCURVE",
"499 177 CURVE",
"368 177 LINE",
"368 128 OFFCURVE",
"337 128 OFFCURVE",
"274 128 CURVE"
);
},
{
closed = 1;
nodes = (
"226 128 OFFCURVE",
"209 157 OFFCURVE",
"209 210 CURVE",
"80 210 LINE",
"80 85 OFFCURVE",
"174 0 OFFCURVE",
"284 0 CURVE",
"274 128 LINE"
);
},
{
closed = 1;
nodes = (
"337 372 OFFCURVE",
"368 377 OFFCURVE",
"368 323 CURVE",
"499 323 LINE",
"499 457 OFFCURVE",
"384 500 OFFCURVE",
"284 500 CURVE",
"274 372 LINE"
);
},
{
closed = 1;
nodes = (
"284 500 LINE",
"174 500 OFFCURVE",
"80 415 OFFCURVE",
"80 290 CURVE",
"209 290 LINE",
"209 343 OFFCURVE",
"226 372 OFFCURVE",
"274 372 CURVE"
);
}
);
width = 579;
}
);
unicode = 00E7;
},
{
glyphname = d;
lastChange = "2021-04-11 21:35:59 +0000";
layers = (
{
layerId = "A833981A-68C5-4528-81CD-92C717829696";
paths = (
{
closed = 1;
nodes = (
"510 700 LINE",
"380 700 LINE",
"380 28 LINE",
"391 0 LINE",
"510 0 LINE"
);
},
{
closed = 1;
nodes = (
"221 254 LINE",
"90 254 LINE",
"90 210 LINE",
"221 210 LINE"
);
},
{
closed = 1;
nodes = (
"252 128 OFFCURVE",
"221 136 OFFCURVE",
"221 210 CURVE",
"90 210 LINE",
"90 40 OFFCURVE",
"205 0 OFFCURVE",
"305 0 CURVE",
"315 128 LINE"
);
},
{
closed = 1;
nodes = (
"305 0 LINE",
"415 0 OFFCURVE",
"455 85 OFFCURVE",
"455 210 CURVE",
"380 210 LINE",
"380 157 OFFCURVE",
"363 128 OFFCURVE",
"315 128 CURVE"
);
},
{
closed = 0;
nodes = (
"391 0 LINE",
"380 28 LINE"
);
},
{
closed = 1;
nodes = (
"221 254 LINE",
"90 254 LINE",
"90 210 LINE",
"221 210 LINE"
);
},
{
closed = 1;
nodes = (
"252 128 OFFCURVE",
"221 136 OFFCURVE",
"221 210 CURVE",
"90 210 LINE",
"90 40 OFFCURVE",
"205 0 OFFCURVE",
"305 0 CURVE",
"315 128 LINE"
);
},
{
closed = 1;
nodes = (
"305 0 LINE",
"415 0 OFFCURVE",
"455 85 OFFCURVE",
"455 210 CURVE",
"380 210 LINE",
"380 157 OFFCURVE",
"363 128 OFFCURVE",
"315 128 CURVE"
);
},
{
closed = 0;
nodes = (
"380 28 LINE"
);
},
{
closed = 1;
nodes = (
"221 254 LINE",
"90 254 LINE",
"90 210 LINE",
"221 210 LINE"
);
},
{
closed = 1;
nodes = (
"252 128 OFFCURVE",
"221 136 OFFCURVE",
"221 210 CURVE",
"90 210 LINE",
"90 40 OFFCURVE",
"205 0 OFFCURVE",
"305 0 CURVE",
"315 128 LINE"
);
},
{
closed = 1;
nodes = (
"305 0 LINE",
"415 0 OFFCURVE",
"455 85 OFFCURVE",
"455 210 CURVE",
"380 210 LINE",
"380 157 OFFCURVE",
"363 128 OFFCURVE",
"315 128 CURVE"
);
},
{
closed = 0;
nodes = (
"391 0 LINE",
"380 28 LINE"
);
},
{
closed = 1;
nodes = (
"221 254 LINE",
"90 254 LINE",
"90 210 LINE",
"221 210 LINE"
);
},
{
closed = 1;
nodes = (
"252 128 OFFCURVE",
"221 136 OFFCURVE",
"221 210 CURVE",
"90 210 LINE",
"90 40 OFFCURVE",
"205 0 OFFCURVE",
"305 0 CURVE",
"315 128 LINE"
);
},
{
closed = 1;
nodes = (
"305 0 LINE",
"415 0 OFFCURVE",
"455 85 OFFCURVE",
"455 210 CURVE",
"380 210 LINE",
"380 157 OFFCURVE",
"363 128 OFFCURVE",
"315 128 CURVE"
);
},
{
closed = 0;
nodes = (
"380 472 LINE"
);
},
{
closed = 1;
nodes = (
"90 290 LINE",
"90 254 LINE",
"221 254 LINE",
"221 290 LINE"
);
},
{
closed = 1;
nodes = (
"305 500 LINE",
"205 500 OFFCURVE",
"90 460 OFFCURVE",
"90 290 CURVE",
"221 290 LINE",
"221 364 OFFCURVE",
"252 372 OFFCURVE",
"315 372 CURVE"
);
},
{
closed = 1;
nodes = (
"363 372 OFFCURVE",
"380 343 OFFCURVE",
"380 290 CURVE",
"455 290 LINE",
"455 415 OFFCURVE",
"415 500 OFFCURVE",
"305 500 CURVE",
"315 372 LINE"
);
},
{
closed = 0;
nodes = (
"380 472 LINE",
"391 500 LINE"
);
},
{
closed = 1;
nodes = (
"90 290 LINE",
"90 254 LINE",
"221 254 LINE",
"221 290 LINE"
);
},
{
closed = 1;
nodes = (
"305 500 LINE",
"205 500 OFFCURVE",
"90 460 OFFCURVE",
"90 290 CURVE",
"221 290 LINE",
"221 364 OFFCURVE",
"252 372 OFFCURVE",
"315 372 CURVE"
);
},
{
closed = 1;
nodes = (
"363 372 OFFCURVE",
"380 343 OFFCURVE",
"380 290 CURVE",
"455 290 LINE",
"455 415 OFFCURVE",
"415 500 OFFCURVE",
"305 500 CURVE",
"315 372 LINE"
);
},
{
closed = 0;
nodes = (
"380 472 LINE"
);
},
{
closed = 1;
nodes = (
"90 290 LINE",
"90 254 LINE",
"221 254 LINE",
"221 290 LINE"
);
},
{
closed = 1;
nodes = (
"305 500 LINE",
"205 500 OFFCURVE",
"90 460 OFFCURVE",
"90 290 CURVE",
"221 290 LINE",
"221 364 OFFCURVE",
"252 372 OFFCURVE",
"315 372 CURVE"
);
},
{
closed = 1;
nodes = (
"363 372 OFFCURVE",
"380 343 OFFCURVE",
"380 290 CURVE",
"455 290 LINE",
"455 415 OFFCURVE",
"415 500 OFFCURVE",
"305 500 CURVE",
"315 372 LINE"
);
},
{
closed = 0;
nodes = (
"380 472 LINE",
"391 500 LINE"
);
},
{
closed = 1;
nodes = (
"90 290 LINE",
"90 254 LINE",
"221 254 LINE",
"221 290 LINE"
);
},
{
closed = 1;
nodes = (
"305 500 LINE",
"205 500 OFFCURVE",
"90 460 OFFCURVE",
"90 290 CURVE",
"221 290 LINE",
"221 364 OFFCURVE",
"252 372 OFFCURVE",
"315 372 CURVE"
);
},
{
closed = 1;
nodes = (
"363 372 OFFCURVE",
"380 343 OFFCURVE",
"380 290 CURVE",
"455 290 LINE",
"455 415 OFFCURVE",
"415 500 OFFCURVE",
"305 500 CURVE",
"315 372 LINE"
);
}
);
width = 600;
}
);
unicode = 0064;
},
{
glyphname = eth;
lastChange = "2021-04-13 09:45:16 +0000";
layers = (
{
layerId = "A833981A-68C5-4528-81CD-92C717829696";
paths = (
{
closed = 1;
nodes = (
"510 233 OFFCURVE",
"596 700 OFFCURVE",
"221 700 CURVE",
"169 605 LINE",
"341 600 OFFCURVE",
"380 462 OFFCURVE",
"380 290 CURVE SMOOTH",
"380 265 OFFCURVE",
"380 236 OFFCURVE",
"380 210 CURVE SMOOTH",
"380 136 OFFCURVE",
"374 60 OFFCURVE",
"375 0 CURVE",
"510 0 LINE"
);
},
{
closed = 1;
nodes = (
"221 254 LINE",
"90 254 LINE",
"90 210 LINE",
"221 210 LINE"
);
},
{
closed = 1;
nodes = (
"252 128 OFFCURVE",
"221 136 OFFCURVE",
"221 210 CURVE",
"90 210 LINE",
"90 40 OFFCURVE",
"205 0 OFFCURVE",
"305 0 CURVE",
"315 128 LINE"
);
},
{
closed = 1;
nodes = (
"305 0 LINE",
"415 0 OFFCURVE",
"455 85 OFFCURVE",
"455 210 CURVE",
"380 210 LINE",
"380 157 OFFCURVE",
"363 128 OFFCURVE",
"315 128 CURVE"
);
},
{
closed = 0;
nodes = (
"380 28 LINE"
);
},
{
closed = 1;
nodes = (
"221 254 LINE",
"90 254 LINE",
"90 210 LINE",
"221 210 LINE"
);
},
{
closed = 1;
nodes = (
"252 128 OFFCURVE",
"221 136 OFFCURVE",
"221 210 CURVE",
"90 210 LINE",
"90 40 OFFCURVE",
"205 0 OFFCURVE",
"305 0 CURVE",
"315 128 LINE"
);
},
{
closed = 1;
nodes = (
"305 0 LINE",
"415 0 OFFCURVE",
"455 85 OFFCURVE",
"455 210 CURVE",
"380 210 LINE",
"380 157 OFFCURVE",
"363 128 OFFCURVE",
"315 128 CURVE"
);
},
{
closed = 0;
nodes = (
"380 28 LINE"
);
},
{
closed = 1;
nodes = (
"221 254 LINE",
"90 254 LINE",
"90 210 LINE",
"221 210 LINE"
);
},
{
closed = 1;
nodes = (
"252 128 OFFCURVE",
"221 136 OFFCURVE",
"221 210 CURVE",
"90 210 LINE",
"90 40 OFFCURVE",
"205 0 OFFCURVE",
"305 0 CURVE",
"315 128 LINE"
);
},
{
closed = 1;
nodes = (
"305 0 LINE",
"415 0 OFFCURVE",
"455 85 OFFCURVE",
"455 210 CURVE",
"380 210 LINE",
"380 157 OFFCURVE",
"363 128 OFFCURVE",
"315 128 CURVE"
);
},
{
closed = 0;
nodes = (
"380 28 LINE"
);
},
{
closed = 1;
nodes = (
"221 254 LINE",
"90 254 LINE",
"90 210 LINE",
"221 210 LINE"
);
},
{
closed = 1;
nodes = (
"252 128 OFFCURVE",
"221 136 OFFCURVE",
"221 210 CURVE",
"90 210 LINE",
"90 40 OFFCURVE",
"205 0 OFFCURVE",
"305 0 CURVE",
"315 128 LINE"
);
},
{
closed = 1;
nodes = (
"305 0 LINE",
"415 0 OFFCURVE",
"455 85 OFFCURVE",
"455 210 CURVE",
"380 210 LINE",
"380 157 OFFCURVE",
"363 128 OFFCURVE",
"315 128 CURVE"
);
},
{
closed = 1;
nodes = (
"90 290 LINE",
"90 254 LINE",
"221 254 LINE",
"221 290 LINE"
);
},
{
closed = 1;
nodes = (
"305 500 LINE",
"205 500 OFFCURVE",
"90 460 OFFCURVE",
"90 290 CURVE",
"221 290 LINE",
"221 364 OFFCURVE",
"252 372 OFFCURVE",
"315 372 CURVE"
);
},
{
closed = 1;
nodes = (
"363 372 OFFCURVE",
"380 343 OFFCURVE",
"380 290 CURVE",
"455 290 LINE",
"455 415 OFFCURVE",
"415 500 OFFCURVE",
"305 500 CURVE",
"315 372 LINE"
);
},
{
closed = 1;
nodes = (
"90 290 LINE",
"90 254 LINE",
"221 254 LINE",
"221 290 LINE"
);
},
{
closed = 1;
nodes = (
"305 500 LINE",
"205 500 OFFCURVE",
"90 460 OFFCURVE",
"90 290 CURVE",
"221 290 LINE",
"221 364 OFFCURVE",
"252 372 OFFCURVE",
"315 372 CURVE"
);
},
{
closed = 1;
nodes = (
"363 372 OFFCURVE",
"380 343 OFFCURVE",
"380 290 CURVE",
"455 290 LINE",
"455 415 OFFCURVE",
"415 500 OFFCURVE",
"305 500 CURVE",
"315 372 LINE"
);
},
{
closed = 1;
nodes = (
"90 290 LINE",
"90 254 LINE",
"221 254 LINE",
"221 290 LINE"
);
},
{
closed = 1;
nodes = (
"305 500 LINE",
"205 500 OFFCURVE",
"90 460 OFFCURVE",
"90 290 CURVE",
"221 290 LINE",
"221 364 OFFCURVE",
"252 372 OFFCURVE",
"315 372 CURVE"
);
},
{
closed = 1;
nodes = (
"363 372 OFFCURVE",
"380 343 OFFCURVE",
"380 290 CURVE",
"455 290 LINE",
"455 415 OFFCURVE",
"415 500 OFFCURVE",
"305 500 CURVE",
"315 372 LINE"
);
},
{
closed = 1;
nodes = (
"90 290 LINE",
"90 254 LINE",
"221 254 LINE",
"221 290 LINE"
);
},
{
closed = 1;
nodes = (
"305 500 LINE",
"205 500 OFFCURVE",
"90 460 OFFCURVE",
"90 290 CURVE",
"221 290 LINE",
"221 364 OFFCURVE",
"252 372 OFFCURVE",
"315 372 CURVE"
);
},
{
closed = 1;
nodes = (
"363 372 OFFCURVE",
"380 343 OFFCURVE",
"380 290 CURVE",
"455 290 LINE",
"455 415 OFFCURVE",
"415 500 OFFCURVE",
"305 500 CURVE",
"315 372 LINE"
);
},
{
closed = 1;
nodes = (
"287 518 LINE",
"468 679 LINE",
"356 716 LINE",
"175 554 LINE"
);
}
);
width = 600;
}
);
unicode = 00F0;
},
{
glyphname = e;
lastChange = "2021-04-13 09:38:07 +0000";
layers = (
{
layerId = "A833981A-68C5-4528-81CD-92C717829696";
paths = (
{
closed = 1;
nodes = (
"209 210 LINE",
"209 290 LINE",
"80 290 LINE",
"80 210 LINE"
);
},
{
closed = 0;
nodes = (
"209 28 LINE"
);
},
{
closed = 0;
nodes = (
"209 28 LINE"
);
},
{
closed = 0;
nodes = (
"209 28 LINE"
);
},
{
closed = 1;
nodes = (
"284 0 LINE",
"406 0 OFFCURVE",
"446 24 OFFCURVE",
"475 85 CURVE",
"392 157 LINE",
"366 119 OFFCURVE",
"307 128 OFFCURVE",
"274 128 CURVE"
);
},
{
closed = 1;
nodes = (
"226 128 OFFCURVE",
"209 157 OFFCURVE",
"209 210 CURVE",
"80 210 LINE",
"80 85 OFFCURVE",
"174 0 OFFCURVE",
"284 0 CURVE",
"274 128 LINE"
);
},
{
closed = 1;
nodes = (
"337 372 OFFCURVE",
"368 354 OFFCURVE",
"368 300 CURVE",
"499 300 LINE",
"499 434 OFFCURVE",
"384 500 OFFCURVE",
"284 500 CURVE",
"274 372 LINE"
);
},
{
closed = 1;
nodes = (
"284 500 LINE",
"174 500 OFFCURVE",
"80 415 OFFCURVE",
"80 290 CURVE",
"209 290 LINE",
"209 343 OFFCURVE",
"226 372 OFFCURVE",
"274 372 CURVE"
);
},
{
closed = 1;
nodes = (
"195 219 LINE",
"499 220 LINE",
"499 300 LINE",
"195 300 LINE"
);
}
);
width = 579;
}
);
unicode = 0065;
},
{
glyphname = f;
lastChange = "2021-04-11 22:21:27 +0000";
layers = (
{
layerId = "A833981A-68C5-4528-81CD-92C717829696";
paths = (
{
closed = 1;
nodes = (
"277 0 LINE",
"277 676 LINE",
"147 485 LINE",
"147 15 LINE"
);
},
{
closed = 1;
nodes = (
"341 500 LINE",
"80 501 LINE",
"80 372 LINE",
"341 371 LINE"
);
},
{
closed = 1;
nodes = (
"277 538 OFFCURVE",
"314 569 OFFCURVE",
"388 569 CURVE",
"388 700 LINE",
"218 700 OFFCURVE",
"147 585 OFFCURVE",
"147 485 CURVE",
"277 475 LINE"
);
}
);
width = 468;
}
);
unicode = 0066;
},
{
glyphname = g;
lastChange = "2021-04-12 08:44:11 +0000";
layers = (
{
layerId = "A833981A-68C5-4528-81CD-92C717829696";
paths = (
{
closed = 1;
nodes = (
"380 482 LINE",
"380 -38 LINE",
"510 -38 LINE",
"510 404 LINE"
);
},
{
closed = 1;
nodes = (
"363 372 OFFCURVE",
"380 343 OFFCURVE",
"380 290 CURVE",
"455 290 LINE",
"455 415 OFFCURVE",
"415 500 OFFCURVE",
"305 500 CURVE",
"315 372 LINE"
);
},
{
closed = 1;
nodes = (
"90 290 LINE",
"90 246 LINE",
"221 246 LINE",
"221 290 LINE"
);
},
{
closed = 1;
nodes = (
"305 500 LINE",
"205 500 OFFCURVE",
"90 460 OFFCURVE",
"90 290 CURVE",
"221 290 LINE",
"221 364 OFFCURVE",
"252 372 OFFCURVE",
"315 372 CURVE"
);
},
{
closed = 0;
nodes = (
"380 28 LINE"
);
},
{
closed = 1;
nodes = (
"221 246 LINE",
"90 246 LINE"
);
},
{
closed = 1;
nodes = (
"221 246 LINE",
"90 246 LINE"
);
},
{
closed = 0;
nodes = (
"380 28 LINE"
);
},
{
closed = 1;
nodes = (
"221 246 LINE",
"90 246 LINE"
);
},
{
closed = 1;
nodes = (
"252 128 OFFCURVE",
"221 136 OFFCURVE",
"221 210 CURVE",
"90 210 LINE",
"90 40 OFFCURVE",
"205 0 OFFCURVE",
"305 0 CURVE",
"315 128 LINE"
);
},
{
closed = 1;
nodes = (
"305 0 LINE",
"415 0 OFFCURVE",
"455 85 OFFCURVE",
"455 210 CURVE",
"380 210 LINE",
"380 157 OFFCURVE",
"363 128 OFFCURVE",
"315 128 CURVE"
);
},
{
closed = 1;
nodes = (
"221 246 LINE",
"90 246 LINE",
"90 210 LINE",
"221 210 LINE"
);
},
{
closed = 0;
nodes = (
"305 0 LINE"
);
},
{
closed = 1;
nodes = (
"271 -100 OFFCURVE",
"223 -75 OFFCURVE",
"223 -22 CURVE",
"113 -22 LINE",
"113 -167 OFFCURVE",
"249 -200 OFFCURVE",
"300 -200 CURVE",
"300 -100 LINE"
);
},
{
closed = 1;
nodes = (
"300 -200 LINE",
"477 -200 OFFCURVE",
"510 -102 OFFCURVE",
"510 -38 CURVE",
"380 -38 LINE",
"380 -38 OFFCURVE",
"382 -100 OFFCURVE",
"300 -100 CURVE"
);
},
{
closed = 1;
nodes = (
"315 500 LINE",
"510 404 LINE",
"554 466 LINE",
"488 500 LINE"
);
}
);
width = 600;
}
);
unicode = 0067;
},
{
glyphname = h;
lastChange = "2021-04-11 21:55:12 +0000";
layers = (
{
layerId = "A833981A-68C5-4528-81CD-92C717829696";
paths = (
{
closed = 1;
nodes = (
"90 0 LINE",
"220 0 LINE",
"220 700 LINE",
"90 700 LINE"
);
},
{
closed = 1;
nodes = (
"380 0 LINE",
"510 0 LINE",
"510 290 LINE",
"379 290 LINE"
);
},
{
closed = 1;
nodes = (
"348 372 OFFCURVE",
"379 364 OFFCURVE",
"379 290 CURVE",
"510 290 LINE",
"510 460 OFFCURVE",
"395 500 OFFCURVE",
"295 500 CURVE",
"285 372 LINE"
);
},
{
closed = 1;
nodes = (
"295 500 LINE",
"185 500 OFFCURVE",
"145 415 OFFCURVE",
"145 290 CURVE",
"220 290 LINE",
"220 343 OFFCURVE",
"237 372 OFFCURVE",
"285 372 CURVE"
);
}
);
width = 600;
}
);
unicode = 0068;
},
{
glyphname = i;
lastChange = "2021-04-12 08:16:06 +0000";
layers = (
{
layerId = "A833981A-68C5-4528-81CD-92C717829696";
paths = (
{
closed = 1;
nodes = (
"90 215 LINE",
"220 24 LINE",
"220 500 LINE",
"90 485 LINE"
);
},
{
closed = 0;
nodes = (
"305 0 LINE",
"305 131 LINE"
);
},
{
closed = 1;
nodes = (
"90 215 LINE",
"90 115 OFFCURVE",
"135 0 OFFCURVE",
"305 0 CURVE",
"305 131 LINE",
"231 131 OFFCURVE",
"220 162 OFFCURVE",
"220 225 CURVE"
);
},
{
closed = 1;
nodes = (
"190 535 OFFCURVE",
"220 564 OFFCURVE",
"220 600 CURVE SMOOTH",
"220 636 OFFCURVE",
"190 665 OFFCURVE",
"155 665 CURVE SMOOTH",
"119 665 OFFCURVE",
"90 636 OFFCURVE",
"90 600 CURVE SMOOTH",
"90 564 OFFCURVE",
"119 535 OFFCURVE",
"155 535 CURVE SMOOTH"
);
}
);
width = 365;
}
);
unicode = 0069;
},
{
glyphname = idotless;
lastChange = "2021-04-12 08:20:34 +0000";
layers = (
{
layerId = "A833981A-68C5-4528-81CD-92C717829696";
paths = (
{
closed = 1;
nodes = (
"90 215 LINE",
"220 24 LINE",
"220 500 LINE",
"90 485 LINE"
);
},
{
closed = 0;
nodes = (
"305 0 LINE",
"305 131 LINE"
);
},
{
closed = 1;
nodes = (
"90 215 LINE",
"90 115 OFFCURVE",
"135 0 OFFCURVE",
"305 0 CURVE",
"305 131 LINE",
"231 131 OFFCURVE",
"220 162 OFFCURVE",
"220 225 CURVE"
);
}
);
width = 365;
}
);
unicode = 0131;
},
{
glyphname = j;
lastChange = "2021-04-12 08:15:55 +0000";
layers = (
{
layerId = "A833981A-68C5-4528-81CD-92C717829696";
paths = (
{
closed = 1;
nodes = (
"145 500 LINE",
"145 -176 LINE",
"275 15 LINE",
"275 485 LINE"
);
},
{
closed = 0;
nodes = (
"60 -200 LINE",
"60 -69 LINE"
);
},
{
closed = 1;
nodes = (
"145 -38 OFFCURVE",
"134 -69 OFFCURVE",
"60 -69 CURVE",
"60 -200 LINE",
"230 -200 OFFCURVE",
"275 -85 OFFCURVE",
"275 15 CURVE",
"145 25 LINE"
);
},
{
closed = 1;
nodes = (
"245 535 OFFCURVE",
"275 564 OFFCURVE",
"275 600 CURVE SMOOTH",
"275 636 OFFCURVE",
"245 665 OFFCURVE",
"210 665 CURVE SMOOTH",
"174 665 OFFCURVE",
"145 636 OFFCURVE",
"145 600 CURVE SMOOTH",
"145 564 OFFCURVE",
"174 535 OFFCURVE",
"210 535 CURVE SMOOTH"
);
}
);
width = 365;
}
);
unicode = 006A;
},
{
glyphname = k;
lastChange = "2021-04-12 08:48:39 +0000";
layers = (
{
layerId = "A833981A-68C5-4528-81CD-92C717829696";
paths = (
{
closed = 1;
nodes = (
"90 0 LINE",
"220 0 LINE",
"220 700 LINE",
"90 700 LINE"
);
},
{
closed = 1;
nodes = (
"510 500 LINE",
"320 500 LINE",
"220 403 LINE",
"220 221 LINE"
);
},
{
closed = 1;
nodes = (
"176 291 LINE",
"366 0 LINE",
"510 0 LINE",
"305 356 LINE"
);
}
);
width = 590;
}
);
unicode = 006B;
},
{
glyphname = l;
lastChange = "2021-04-11 21:54:24 +0000";
layers = (
{
layerId = "A833981A-68C5-4528-81CD-92C717829696";
paths = (
{
closed = 1;
nodes = (
"90 215 LINE",
"220 24 LINE",
"220 700 LINE",
"90 685 LINE"
);
},
{
closed = 0;
nodes = (
"305 0 LINE",
"305 131 LINE"
);
},
{
closed = 1;
nodes = (
"90 215 LINE",
"90 115 OFFCURVE",
"135 0 OFFCURVE",
"305 0 CURVE",
"305 131 LINE",
"231 131 OFFCURVE",
"220 162 OFFCURVE",
"220 225 CURVE"
);
}
);
width = 365;
}
);
unicode = 006C;
},
{
glyphname = m;
lastChange = "2021-04-11 20:11:40 +0000";
layers = (
{
layerId = "A833981A-68C5-4528-81CD-92C717829696";
paths = (
{
closed = 1;
nodes = (
"90 0 LINE",
"220 0 LINE",
"220 472 LINE",
"209 500 LINE",
"90 500 LINE"
);
},
{
closed = 1;
nodes = (
"380 0 LINE",
"510 0 LINE",
"510 290 LINE",
"379 290 LINE"
);
},
{
closed = 1;
nodes = (
"348 372 OFFCURVE",
"379 364 OFFCURVE",
"379 290 CURVE",
"510 290 LINE",
"510 500 OFFCURVE",
"395 500 OFFCURVE",
"295 500 CURVE",
"285 372 LINE"
);
},
{
closed = 1;
nodes = (
"295 500 LINE",
"185 500 OFFCURVE",
"145 415 OFFCURVE",
"145 290 CURVE",
"220 290 LINE",
"220 343 OFFCURVE",
"237 372 OFFCURVE",
"285 372 CURVE"
);
},
{
closed = 0;
nodes = (
"510 472 LINE"
);
},
{
closed = 1;
nodes = (
"670 0 LINE",
"800 0 LINE",
"800 290 LINE",
"669 290 LINE"
);
},
{
closed = 1;
nodes = (
"638 372 OFFCURVE",
"669 364 OFFCURVE",
"669 290 CURVE",
"800 290 LINE",
"800 460 OFFCURVE",
"685 500 OFFCURVE",
"585 500 CURVE",
"575 372 LINE"
);
},
{
closed = 1;
nodes = (
"585 500 LINE",
"475 500 OFFCURVE",
"435 415 OFFCURVE",
"435 290 CURVE",
"510 290 LINE",
"510 343 OFFCURVE",
"527 372 OFFCURVE",
"575 372 CURVE"
);
}
);
width = 900;
}
);
unicode = 006D;
},
{
glyphname = n;
lastChange = "2021-04-11 19:48:36 +0000";
layers = (
{
layerId = "A833981A-68C5-4528-81CD-92C717829696";
paths = (
{
closed = 1;
nodes = (
"90 0 LINE",
"220 0 LINE",
"220 472 LINE",
"209 500 LINE",
"90 500 LINE"
);
},
{
closed = 1;
nodes = (
"380 0 LINE",
"510 0 LINE",
"510 290 LINE",
"379 290 LINE"
);
},
{
closed = 1;
nodes = (
"348 372 OFFCURVE",
"379 364 OFFCURVE",
"379 290 CURVE",
"510 290 LINE",
"510 460 OFFCURVE",
"395 500 OFFCURVE",
"295 500 CURVE",
"285 372 LINE"
);
},
{
closed = 1;
nodes = (
"295 500 LINE",
"185 500 OFFCURVE",
"145 415 OFFCURVE",
"145 290 CURVE",
"220 290 LINE",
"220 343 OFFCURVE",
"237 372 OFFCURVE",
"285 372 CURVE"
);
}
);
width = 600;
}
);
unicode = 006E;
},
{
glyphname = o;
lastChange = "2021-04-11 22:20:55 +0000";
layers = (
{
layerId = "A833981A-68C5-4528-81CD-92C717829696";
paths = (
{
closed = 1;
nodes = (
"510 210 LINE",
"510 254 LINE",
"379 254 LINE",
"379 210 LINE"
);
},
{
closed = 1;
nodes = (
"295 0 LINE",
"395 0 OFFCURVE",
"510 40 OFFCURVE",
"510 210 CURVE",
"379 210 LINE",
"379 136 OFFCURVE",
"348 128 OFFCURVE",
"285 128 CURVE"
);
},
{
closed = 1;
nodes = (
"295 0 LINE",
"285 128 LINE"
);
},
{
closed = 1;
nodes = (
"379 254 LINE",
"510 254 LINE"
);
},
{
closed = 1;
nodes = (
"379 254 LINE",
"510 254 LINE",
"510 290 LINE",
"379 290 LINE"
);
},
{
closed = 1;
nodes = (
"348 372 OFFCURVE",
"379 364 OFFCURVE",
"379 290 CURVE",
"510 290 LINE",
"510 460 OFFCURVE",
"395 500 OFFCURVE",
"295 500 CURVE",
"285 372 LINE"
);
},
{
closed = 1;
nodes = (
"295 500 LINE",
"285 372 LINE"
);
},
{
closed = 1;
nodes = (
"211 254 LINE",
"80 254 LINE",
"80 210 LINE",
"211 210 LINE"
);
},
{
closed = 1;
nodes = (
"242 128 OFFCURVE",
"211 136 OFFCURVE",
"211 210 CURVE",
"80 210 LINE",
"80 40 OFFCURVE",
"195 0 OFFCURVE",
"295 0 CURVE",
"305 128 LINE"
);
},
{
closed = 1;
nodes = (
"295 0 LINE",
"305 128 LINE"
);
},
{
closed = 1;
nodes = (
"80 254 LINE",
"211 254 LINE"
);
},
{
closed = 1;
nodes = (
"80 254 LINE",
"211 254 LINE"
);
},
{
closed = 1;
nodes = (
"80 254 LINE",
"211 254 LINE"
);
},
{
closed = 1;
nodes = (
"295 500 LINE",
"305 372 LINE"
);
},
{
closed = 1;
nodes = (
"80 290 LINE",
"80 254 LINE",
"211 254 LINE",
"211 290 LINE"
);
},
{
closed = 1;
nodes = (
"295 500 LINE",
"195 500 OFFCURVE",
"80 460 OFFCURVE",
"80 290 CURVE",
"211 290 LINE",
"211 364 OFFCURVE",
"242 372 OFFCURVE",
"305 372 CURVE"
);
}
);
width = 590;
}
);
unicode = 006F;
},
{
glyphname = odieresis;
lastChange = "2021-04-12 08:16:59 +0000";
layers = (
{
components = (
{
name = dieresiscomb;
}
);
layerId = "A833981A-68C5-4528-81CD-92C717829696";
paths = (
{
closed = 1;
nodes = (
"510 210 LINE",
"510 254 LINE",
"379 254 LINE",
"379 210 LINE"
);
},
{
closed = 1;
nodes = (
"295 0 LINE",
"395 0 OFFCURVE",
"510 40 OFFCURVE",
"510 210 CURVE",
"379 210 LINE",
"379 136 OFFCURVE",
"348 128 OFFCURVE",
"285 128 CURVE"
);
},
{
closed = 1;
nodes = (
"295 0 LINE",
"285 128 LINE"
);
},
{
closed = 1;
nodes = (
"379 254 LINE",
"510 254 LINE"
);
},
{
closed = 1;
nodes = (
"379 254 LINE",
"510 254 LINE",
"510 290 LINE",
"379 290 LINE"
);
},
{
closed = 1;
nodes = (
"348 372 OFFCURVE",
"379 364 OFFCURVE",
"379 290 CURVE",
"510 290 LINE",
"510 460 OFFCURVE",
"395 500 OFFCURVE",
"295 500 CURVE",
"285 372 LINE"
);
},
{
closed = 1;
nodes = (
"295 500 LINE",
"285 372 LINE"
);
},
{
closed = 1;
nodes = (
"211 254 LINE",
"80 254 LINE",
"80 210 LINE",
"211 210 LINE"
);
},
{
closed = 1;
nodes = (
"242 128 OFFCURVE",
"211 136 OFFCURVE",
"211 210 CURVE",
"80 210 LINE",
"80 40 OFFCURVE",
"195 0 OFFCURVE",
"295 0 CURVE",
"305 128 LINE"
);
},
{
closed = 1;
nodes = (
"295 0 LINE",
"305 128 LINE"
);
},
{
closed = 1;
nodes = (
"80 254 LINE",
"211 254 LINE"
);
},
{
closed = 1;
nodes = (
"80 254 LINE",
"211 254 LINE"
);
},
{
closed = 1;
nodes = (
"80 254 LINE",
"211 254 LINE"
);
},
{
closed = 1;
nodes = (
"295 500 LINE",
"305 372 LINE"
);
},
{
closed = 1;
nodes = (
"80 290 LINE",
"80 254 LINE",
"211 254 LINE",
"211 290 LINE"
);
},
{
closed = 1;
nodes = (
"295 500 LINE",
"195 500 OFFCURVE",
"80 460 OFFCURVE",
"80 290 CURVE",
"211 290 LINE",
"211 364 OFFCURVE",
"242 372 OFFCURVE",
"305 372 CURVE"
);
}
);
width = 590;
}
);
unicode = 00F6;
},
{
glyphname = oe;
lastChange = "2021-04-13 09:45:57 +0000";
layers = (
{
layerId = "A833981A-68C5-4528-81CD-92C717829696";
paths = (
{
closed = 1;
nodes = (
"510 210 LINE",
"510 254 LINE",
"379 254 LINE",
"379 210 LINE"
);
},
{
closed = 1;
nodes = (
"295 0 LINE",
"395 0 OFFCURVE",
"510 40 OFFCURVE",
"510 210 CURVE",
"379 210 LINE",
"379 136 OFFCURVE",
"348 128 OFFCURVE",
"285 128 CURVE"
);
},
{
closed = 1;
nodes = (
"295 0 LINE",
"285 128 LINE"
);
},
{
closed = 1;
nodes = (
"379 254 LINE",
"510 254 LINE"
);
},
{
closed = 1;
nodes = (
"379 254 LINE",
"510 254 LINE",
"510 290 LINE",
"379 290 LINE"
);
},
{
closed = 1;
nodes = (
"348 372 OFFCURVE",
"379 364 OFFCURVE",
"379 290 CURVE",
"510 290 LINE",
"510 460 OFFCURVE",
"395 500 OFFCURVE",
"295 500 CURVE",
"285 372 LINE"
);
},
{
closed = 1;
nodes = (
"295 500 LINE",
"285 372 LINE"
);
},
{
closed = 1;
nodes = (
"211 254 LINE",
"80 254 LINE",
"80 210 LINE",
"211 210 LINE"
);
},
{
closed = 1;
nodes = (
"242 128 OFFCURVE",
"211 136 OFFCURVE",
"211 210 CURVE",
"80 210 LINE",
"80 40 OFFCURVE",
"195 0 OFFCURVE",
"295 0 CURVE",
"305 128 LINE"
);
},
{
closed = 1;
nodes = (
"295 0 LINE",
"305 128 LINE"
);
},
{
closed = 1;
nodes = (
"80 254 LINE",
"211 254 LINE"
);
},
{
closed = 1;
nodes = (
"80 254 LINE",
"211 254 LINE"
);
},
{
closed = 1;
nodes = (
"80 254 LINE",
"211 254 LINE"
);
},
{
closed = 1;
nodes = (
"295 500 LINE",
"305 372 LINE"
);
},
{
closed = 1;
nodes = (
"80 290 LINE",
"80 254 LINE",
"211 254 LINE",
"211 290 LINE"
);
},
{
closed = 1;
nodes = (
"295 500 LINE",
"195 500 OFFCURVE",
"80 460 OFFCURVE",
"80 290 CURVE",
"211 290 LINE",
"211 364 OFFCURVE",
"242 372 OFFCURVE",
"305 372 CURVE"
);
},
{
closed = 1;
nodes = (
"509 210 LINE",
"509 290 LINE",
"380 290 LINE",
"380 210 LINE"
);
},
{
closed = 0;
nodes = (
"509 28 LINE"
);
},
{
closed = 0;
nodes = (
"509 28 LINE"
);
},
{
closed = 0;
nodes = (
"509 28 LINE"
);
},
{
closed = 1;
nodes = (
"584 0 LINE",
"706 0 OFFCURVE",
"746 24 OFFCURVE",
"775 85 CURVE",
"692 157 LINE",
"666 119 OFFCURVE",
"607 128 OFFCURVE",
"574 128 CURVE"
);
},
{
closed = 1;
nodes = (
"526 128 OFFCURVE",
"509 157 OFFCURVE",
"509 210 CURVE",
"380 210 LINE",
"380 85 OFFCURVE",
"474 0 OFFCURVE",
"584 0 CURVE",
"574 128 LINE"
);
},
{
closed = 1;
nodes = (
"637 372 OFFCURVE",
"668 354 OFFCURVE",
"668 300 CURVE",
"799 300 LINE",
"799 434 OFFCURVE",
"684 500 OFFCURVE",
"584 500 CURVE",
"574 372 LINE"
);
},
{
closed = 1;
nodes = (
"584 500 LINE",
"474 500 OFFCURVE",
"380 415 OFFCURVE",
"380 290 CURVE",
"509 290 LINE",
"509 343 OFFCURVE",
"526 372 OFFCURVE",
"574 372 CURVE"
);
},
{
closed = 1;
nodes = (
"495 219 LINE",
"799 220 LINE",
"799 300 LINE",
"495 300 LINE"
);
}
);
width = 879;
}
);
unicode = 0153;
},
{
glyphname = p;
lastChange = "2021-04-11 20:41:09 +0000";
layers = (
{
layerId = "A833981A-68C5-4528-81CD-92C717829696";
paths = (
{
closed = 1;
nodes = (
"90 -200 LINE",
"220 -200 LINE",
"220 472 LINE",
"209 500 LINE",
"90 500 LINE"
);
},
{
closed = 1;
nodes = (
"348 372 OFFCURVE",
"395 500 OFFCURVE",
"295 500 CURVE",
"285 372 LINE"
);
},
{
closed = 1;
nodes = (
"295 500 LINE",
"185 500 OFFCURVE",
"145 415 OFFCURVE",
"145 290 CURVE",
"220 290 LINE",
"220 343 OFFCURVE",
"237 372 OFFCURVE",
"285 372 CURVE"
);
},
{
closed = 0;
nodes = (
"220 472 LINE",
"209 500 LINE"
);
},
{
closed = 1;
nodes = (
"348 372 OFFCURVE",
"395 500 OFFCURVE",
"295 500 CURVE",
"285 372 LINE"
);
},
{
closed = 1;
nodes = (
"295 500 LINE",
"185 500 OFFCURVE",
"145 415 OFFCURVE",
"145 290 CURVE",
"220 290 LINE",
"220 343 OFFCURVE",
"237 372 OFFCURVE",
"285 372 CURVE"
);
},
{
closed = 0;
nodes = (
"220 472 LINE"
);
},
{
closed = 1;
nodes = (
"348 372 OFFCURVE",
"395 500 OFFCURVE",
"295 500 CURVE",
"285 372 LINE"
);
},
{
closed = 1;
nodes = (
"295 500 LINE",
"185 500 OFFCURVE",
"145 415 OFFCURVE",
"145 290 CURVE",
"220 290 LINE",
"220 343 OFFCURVE",
"237 372 OFFCURVE",
"285 372 CURVE"
);
},
{
closed = 0;
nodes = (
"220 472 LINE",
"209 500 LINE"
);
},
{
closed = 1;
nodes = (
"510 290 LINE",
"379 290 LINE"
);
},
{
closed = 1;
nodes = (
"348 372 OFFCURVE",
"379 364 OFFCURVE",
"379 290 CURVE",
"510 290 LINE",
"510 460 OFFCURVE",
"395 500 OFFCURVE",
"295 500 CURVE",
"285 372 LINE"
);
},
{
closed = 1;
nodes = (
"295 500 LINE",
"185 500 OFFCURVE",
"145 415 OFFCURVE",
"145 290 CURVE",
"220 290 LINE",
"220 343 OFFCURVE",
"237 372 OFFCURVE",
"285 372 CURVE"
);
},
{
closed = 0;
nodes = (
"220 28 LINE"
);
},
{
closed = 0;
nodes = (
"209 0 LINE",
"220 28 LINE"
);
},
{
closed = 0;
nodes = (
"220 28 LINE"
);
},
{
closed = 1;
nodes = (
"237 128 OFFCURVE",
"220 157 OFFCURVE",
"220 210 CURVE",
"145 210 LINE",
"145 85 OFFCURVE",
"185 0 OFFCURVE",
"295 0 CURVE",
"285 128 LINE"
);
},
{
closed = 0;
nodes = (
"209 0 LINE",
"220 28 LINE"
);
},
{
closed = 1;
nodes = (
"510 210 LINE",
"379 210 LINE"
);
},
{
closed = 1;
nodes = (
"295 0 LINE",
"395 0 OFFCURVE",
"510 40 OFFCURVE",
"510 210 CURVE",
"379 210 LINE",
"379 136 OFFCURVE",
"348 128 OFFCURVE",
"285 128 CURVE"
);
},
{
closed = 1;
nodes = (
"237 128 OFFCURVE",
"220 157 OFFCURVE",
"220 210 CURVE",
"145 210 LINE",
"145 85 OFFCURVE",
"185 0 OFFCURVE",
"295 0 CURVE",
"285 128 LINE"
);
},
{
closed = 1;
nodes = (
"379 210 LINE",
"510 210 LINE",
"510 290 LINE",
"379 290 LINE"
);
}
);
width = 600;
}
);
unicode = 0070;
},
{
glyphname = thorn;
lastChange = "2021-04-13 09:46:37 +0000";
layers = (
{
layerId = "A833981A-68C5-4528-81CD-92C717829696";
paths = (
{
closed = 1;
nodes = (
"90 -200 LINE",
"220 -200 LINE",
"220 700 LINE",
"90 700 LINE"
);
},
{
closed = 1;
nodes = (
"348 372 OFFCURVE",
"395 500 OFFCURVE",
"295 500 CURVE",
"285 372 LINE"
);
},
{
closed = 1;
nodes = (
"295 500 LINE",
"185 500 OFFCURVE",
"145 415 OFFCURVE",
"145 290 CURVE",
"220 290 LINE",
"220 343 OFFCURVE",
"237 372 OFFCURVE",
"285 372 CURVE"
);
},
{
closed = 1;
nodes = (
"348 372 OFFCURVE",
"395 500 OFFCURVE",
"295 500 CURVE",
"285 372 LINE"
);
},
{
closed = 1;
nodes = (
"295 500 LINE",
"185 500 OFFCURVE",
"145 415 OFFCURVE",
"145 290 CURVE",
"220 290 LINE",
"220 343 OFFCURVE",
"237 372 OFFCURVE",
"285 372 CURVE"
);
},
{
closed = 1;
nodes = (
"348 372 OFFCURVE",
"395 500 OFFCURVE",
"295 500 CURVE",
"285 372 LINE"
);
},
{
closed = 1;
nodes = (
"295 500 LINE",
"185 500 OFFCURVE",
"145 415 OFFCURVE",
"145 290 CURVE",
"220 290 LINE",
"220 343 OFFCURVE",
"237 372 OFFCURVE",
"285 372 CURVE"
);
},
{
closed = 1;
nodes = (
"510 290 LINE",
"379 290 LINE"
);
},
{
closed = 1;
nodes = (
"348 372 OFFCURVE",
"379 364 OFFCURVE",
"379 290 CURVE",
"510 290 LINE",
"510 460 OFFCURVE",
"395 500 OFFCURVE",
"295 500 CURVE",
"285 372 LINE"
);
},
{
closed = 1;
nodes = (
"295 500 LINE",
"185 500 OFFCURVE",
"145 415 OFFCURVE",
"145 290 CURVE",
"220 290 LINE",
"220 343 OFFCURVE",
"237 372 OFFCURVE",
"285 372 CURVE"
);
},
{
closed = 0;
nodes = (
"220 28 LINE"
);
},
{
closed = 0;
nodes = (
"209 0 LINE",
"220 28 LINE"
);
},
{
closed = 0;
nodes = (
"220 28 LINE"
);
},
{
closed = 1;
nodes = (
"237 128 OFFCURVE",
"220 157 OFFCURVE",
"220 210 CURVE",
"145 210 LINE",
"145 85 OFFCURVE",
"185 0 OFFCURVE",
"295 0 CURVE",
"285 128 LINE"
);
},
{
closed = 0;
nodes = (
"209 0 LINE",
"220 28 LINE"
);
},
{
closed = 1;
nodes = (
"510 210 LINE",
"379 210 LINE"
);
},
{
closed = 1;
nodes = (
"295 0 LINE",
"395 0 OFFCURVE",
"510 40 OFFCURVE",
"510 210 CURVE",
"379 210 LINE",
"379 136 OFFCURVE",
"348 128 OFFCURVE",
"285 128 CURVE"
);
},
{
closed = 1;
nodes = (
"237 128 OFFCURVE",
"220 157 OFFCURVE",
"220 210 CURVE",
"145 210 LINE",
"145 85 OFFCURVE",
"185 0 OFFCURVE",
"295 0 CURVE",
"285 128 LINE"
);
},
{
closed = 1;
nodes = (
"379 210 LINE",
"510 210 LINE",
"510 290 LINE",
"379 290 LINE"
);
}
);
width = 600;
}
);
unicode = 00FE;
},
{
glyphname = q;
lastChange = "2021-04-11 20:41:35 +0000";
layers = (
{
layerId = "A833981A-68C5-4528-81CD-92C717829696";
paths = (
{
closed = 1;
nodes = (
"391 500 LINE",
"380 472 LINE",
"380 -200 LINE",
"510 -200 LINE",
"510 500 LINE"
);
},
{
closed = 1;
nodes = (
"90 290 LINE",
"90 246 LINE",
"221 246 LINE",
"221 290 LINE"
);
},
{
closed = 1;
nodes = (
"305 500 LINE",
"205 500 OFFCURVE",
"90 460 OFFCURVE",
"90 290 CURVE",
"221 290 LINE",
"221 364 OFFCURVE",
"252 372 OFFCURVE",
"315 372 CURVE"
);
},
{
closed = 1;
nodes = (
"363 372 OFFCURVE",
"380 343 OFFCURVE",
"380 290 CURVE",
"455 290 LINE",
"455 415 OFFCURVE",
"415 500 OFFCURVE",
"305 500 CURVE",
"315 372 LINE"
);
},
{
closed = 0;
nodes = (
"380 472 LINE",
"391 500 LINE"
);
},
{
closed = 1;
nodes = (
"90 290 LINE",
"90 246 LINE",
"221 246 LINE",
"221 290 LINE"
);
},
{
closed = 1;
nodes = (
"305 500 LINE",
"205 500 OFFCURVE",
"90 460 OFFCURVE",
"90 290 CURVE",
"221 290 LINE",
"221 364 OFFCURVE",
"252 372 OFFCURVE",
"315 372 CURVE"
);
},
{
closed = 1;
nodes = (
"363 372 OFFCURVE",
"380 343 OFFCURVE",
"380 290 CURVE",
"455 290 LINE",
"455 415 OFFCURVE",
"415 500 OFFCURVE",
"305 500 CURVE",
"315 372 LINE"
);
},
{
closed = 0;
nodes = (
"380 472 LINE"
);
},
{
closed = 1;
nodes = (
"90 290 LINE",
"90 246 LINE",
"221 246 LINE",
"221 290 LINE"
);
},
{
closed = 1;
nodes = (
"305 500 LINE",
"205 500 OFFCURVE",
"90 460 OFFCURVE",
"90 290 CURVE",
"221 290 LINE",
"221 364 OFFCURVE",
"252 372 OFFCURVE",
"315 372 CURVE"
);
},
{
closed = 1;
nodes = (
"363 372 OFFCURVE",
"380 343 OFFCURVE",
"380 290 CURVE",
"455 290 LINE",
"455 415 OFFCURVE",
"415 500 OFFCURVE",
"305 500 CURVE",
"315 372 LINE"
);
},
{
closed = 0;
nodes = (
"380 472 LINE",
"391 500 LINE"
);
},
{
closed = 1;
nodes = (
"90 290 LINE",
"90 246 LINE",
"221 246 LINE",
"221 290 LINE"
);
},
{
closed = 1;
nodes = (
"305 500 LINE",
"205 500 OFFCURVE",
"90 460 OFFCURVE",
"90 290 CURVE",
"221 290 LINE",
"221 364 OFFCURVE",
"252 372 OFFCURVE",
"315 372 CURVE"
);
},
{
closed = 1;
nodes = (
"363 372 OFFCURVE",
"380 343 OFFCURVE",
"380 290 CURVE",
"455 290 LINE",
"455 415 OFFCURVE",
"415 500 OFFCURVE",
"305 500 CURVE",
"315 372 LINE"
);
},
{
closed = 0;
nodes = (
"380 28 LINE"
);
},
{
closed = 1;
nodes = (
"221 246 LINE",
"90 246 LINE",
"90 210 LINE",
"221 210 LINE"
);
},
{
closed = 1;
nodes = (
"252 128 OFFCURVE",
"221 136 OFFCURVE",
"221 210 CURVE",
"90 210 LINE",
"90 40 OFFCURVE",
"205 0 OFFCURVE",
"305 0 CURVE",
"315 128 LINE"
);
},
{
closed = 1;
nodes = (
"305 0 LINE",
"415 0 OFFCURVE",
"455 85 OFFCURVE",
"455 210 CURVE",
"380 210 LINE",
"380 157 OFFCURVE",
"363 128 OFFCURVE",
"315 128 CURVE"
);
},
{
closed = 0;
nodes = (
"391 0 LINE",
"380 28 LINE"
);
},
{
closed = 1;
nodes = (
"221 246 LINE",
"90 246 LINE",
"90 210 LINE",
"221 210 LINE"
);
},
{
closed = 1;
nodes = (
"252 128 OFFCURVE",
"221 136 OFFCURVE",
"221 210 CURVE",
"90 210 LINE",
"90 40 OFFCURVE",
"205 0 OFFCURVE",
"305 0 CURVE",
"315 128 LINE"
);
},
{
closed = 1;
nodes = (
"305 0 LINE",
"415 0 OFFCURVE",
"455 85 OFFCURVE",
"455 210 CURVE",
"380 210 LINE",
"380 157 OFFCURVE",
"363 128 OFFCURVE",
"315 128 CURVE"
);
},
{
closed = 0;
nodes = (
"380 28 LINE"
);
},
{
closed = 1;
nodes = (
"221 246 LINE",
"90 246 LINE",
"90 210 LINE",
"221 210 LINE"
);
},
{
closed = 1;
nodes = (
"252 128 OFFCURVE",
"221 136 OFFCURVE",
"221 210 CURVE",
"90 210 LINE",
"90 40 OFFCURVE",
"205 0 OFFCURVE",
"305 0 CURVE",
"315 128 LINE"
);
},
{
closed = 1;
nodes = (
"305 0 LINE",
"415 0 OFFCURVE",
"455 85 OFFCURVE",
"455 210 CURVE",
"380 210 LINE",
"380 157 OFFCURVE",
"363 128 OFFCURVE",
"315 128 CURVE"
);
},
{
closed = 0;
nodes = (
"391 0 LINE",
"380 28 LINE"
);
},
{
closed = 1;
nodes = (
"221 246 LINE",
"90 246 LINE",
"90 210 LINE",
"221 210 LINE"
);
},
{
closed = 1;
nodes = (
"252 128 OFFCURVE",
"221 136 OFFCURVE",
"221 210 CURVE",
"90 210 LINE",
"90 40 OFFCURVE",
"205 0 OFFCURVE",
"305 0 CURVE",
"315 128 LINE"
);
},
{
closed = 1;
nodes = (
"305 0 LINE",
"415 0 OFFCURVE",
"455 85 OFFCURVE",
"455 210 CURVE",
"380 210 LINE",
"380 157 OFFCURVE",
"363 128 OFFCURVE",
"315 128 CURVE"
);
}
);
width = 600;
}
);
unicode = 0071;
},
{
glyphname = r;
lastChange = "2021-04-11 20:06:45 +0000";
layers = (
{
layerId = "A833981A-68C5-4528-81CD-92C717829696";
paths = (
{
closed = 1;
nodes = (
"90 0 LINE",
"220 0 LINE",
"220 472 LINE",
"209 500 LINE",
"90 500 LINE"
);
},
{
closed = 1;
nodes = (
"380 246 LINE",
"510 246 LINE",
"510 290 LINE",
"379 290 LINE"
);
},
{
closed = 1;
nodes = (
"348 372 OFFCURVE",
"379 364 OFFCURVE",
"379 290 CURVE",
"510 290 LINE",
"510 460 OFFCURVE",
"395 500 OFFCURVE",
"295 500 CURVE",
"285 372 LINE"
);
},
{
closed = 1;
nodes = (
"295 500 LINE",
"185 500 OFFCURVE",
"145 415 OFFCURVE",
"145 290 CURVE",
"220 290 LINE",
"220 343 OFFCURVE",
"237 372 OFFCURVE",
"285 372 CURVE"
);
},
{
closed = 0;
nodes = (
"220 472 LINE",
"209 500 LINE"
);
},
{
closed = 1;
nodes = (
"380 246 LINE",
"510 246 LINE",
"510 290 LINE",
"379 290 LINE"
);
},
{
closed = 1;
nodes = (
"348 372 OFFCURVE",
"379 364 OFFCURVE",
"379 290 CURVE",
"510 290 LINE",
"510 460 OFFCURVE",
"395 500 OFFCURVE",
"295 500 CURVE",
"285 372 LINE"
);
},
{
closed = 1;
nodes = (
"295 500 LINE",
"185 500 OFFCURVE",
"145 415 OFFCURVE",
"145 290 CURVE",
"220 290 LINE",
"220 343 OFFCURVE",
"237 372 OFFCURVE",
"285 372 CURVE"
);
},
{
closed = 0;
nodes = (
"220 472 LINE"
);
},
{
closed = 1;
nodes = (
"380 246 LINE",
"510 246 LINE",
"510 290 LINE",
"379 290 LINE"
);
},
{
closed = 1;
nodes = (
"348 372 OFFCURVE",
"379 364 OFFCURVE",
"379 290 CURVE",
"510 290 LINE",
"510 460 OFFCURVE",
"395 500 OFFCURVE",
"295 500 CURVE",
"285 372 LINE"
);
},
{
closed = 1;
nodes = (
"295 500 LINE",
"185 500 OFFCURVE",
"145 415 OFFCURVE",
"145 290 CURVE",
"220 290 LINE",
"220 343 OFFCURVE",
"237 372 OFFCURVE",
"285 372 CURVE"
);
},
{
closed = 0;
nodes = (
"220 472 LINE",
"209 500 LINE"
);
},
{
closed = 1;
nodes = (
"380 246 LINE",
"510 246 LINE",
"510 290 LINE",
"379 290 LINE"
);
},
{
closed = 1;
nodes = (
"348 372 OFFCURVE",
"379 364 OFFCURVE",
"379 290 CURVE",
"510 290 LINE",
"510 460 OFFCURVE",
"395 500 OFFCURVE",
"295 500 CURVE",
"285 372 LINE"
);
},
{
closed = 1;
nodes = (
"295 500 LINE",
"185 500 OFFCURVE",
"145 415 OFFCURVE",
"145 290 CURVE",
"220 290 LINE",
"220 343 OFFCURVE",
"237 372 OFFCURVE",
"285 372 CURVE"
);
},
{
closed = 1;
nodes = (
"510 246 LINE",
"380 246 LINE"
);
},
{
closed = 1;
nodes = (
"510 246 LINE",
"380 246 LINE"
);
},
{
closed = 1;
nodes = (
"510 246 LINE",
"380 246 LINE"
);
},
{
closed = 1;
nodes = (
"510 246 LINE",
"380 246 LINE"
);
}
);
width = 600;
}
);
unicode = 0072;
},
{
glyphname = s;
lastChange = "2021-04-12 09:00:56 +0000";
layers = (
{
components = (
{
name = yarimS;
}
);
layerId = "A833981A-68C5-4528-81CD-92C717829696";
paths = (
{
closed = 1;
nodes = (
"396 294 OFFCURVE",
"485 230 OFFCURVE",
"485 148 CURVE SMOOTH",
"485 65 OFFCURVE",
"396 0 OFFCURVE",
"289 0 CURVE SMOOTH",
"179 0 OFFCURVE",
"90 65 OFFCURVE",
"90 148 CURVE",
"203 161 LINE",
"203 134 OFFCURVE",
"242 114 OFFCURVE",
"289 114 CURVE SMOOTH",
"335 114 OFFCURVE",
"372 134 OFFCURVE",
"372 161 CURVE SMOOTH",
"372 186 OFFCURVE",
"335 205 OFFCURVE",
"289 205 CURVE",
"289 294 LINE"
);
},
{
closed = 1;
nodes = (
"182 205 OFFCURVE",
"93 270 OFFCURVE",
"93 352 CURVE SMOOTH",
"93 436 OFFCURVE",
"182 500 OFFCURVE",
"289 500 CURVE SMOOTH",
"399 500 OFFCURVE",
"488 436 OFFCURVE",
"488 352 CURVE",
"375 340 LINE",
"375 365 OFFCURVE",
"336 385 OFFCURVE",
"289 385 CURVE SMOOTH",
"243 385 OFFCURVE",
"206 365 OFFCURVE",
"206 340 CURVE SMOOTH",
"206 313 OFFCURVE",
"243 294 OFFCURVE",
"289 294 CURVE",
"289 205 LINE"
);
}
);
width = 578;
}
);
unicode = 0073;
},
{
glyphname = scedilla;
lastChange = "2021-04-12 17:06:44 +0000";
layers = (
{
components = (
{
name = cedillacomb;
}
);
layerId = "A833981A-68C5-4528-81CD-92C717829696";
paths = (
{
closed = 1;
nodes = (
"396 294 OFFCURVE",
"485 230 OFFCURVE",
"485 148 CURVE SMOOTH",
"485 65 OFFCURVE",
"396 0 OFFCURVE",
"289 0 CURVE SMOOTH",
"179 0 OFFCURVE",
"90 65 OFFCURVE",
"90 148 CURVE",
"203 161 LINE",
"203 134 OFFCURVE",
"242 114 OFFCURVE",
"289 114 CURVE SMOOTH",
"335 114 OFFCURVE",
"372 134 OFFCURVE",
"372 161 CURVE SMOOTH",
"372 186 OFFCURVE",
"335 205 OFFCURVE",
"289 205 CURVE",
"289 294 LINE"
);
},
{
closed = 1;
nodes = (
"182 205 OFFCURVE",
"93 270 OFFCURVE",
"93 352 CURVE SMOOTH",
"93 436 OFFCURVE",
"182 500 OFFCURVE",
"289 500 CURVE SMOOTH",
"399 500 OFFCURVE",
"488 436 OFFCURVE",
"488 352 CURVE",
"375 340 LINE",
"375 365 OFFCURVE",
"336 385 OFFCURVE",
"289 385 CURVE SMOOTH",
"243 385 OFFCURVE",
"206 365 OFFCURVE",
"206 340 CURVE SMOOTH",
"206 313 OFFCURVE",
"243 294 OFFCURVE",
"289 294 CURVE",
"289 205 LINE"
);
},
{
closed = 1;
nodes = (
"396 294 OFFCURVE",
"485 230 OFFCURVE",
"485 148 CURVE SMOOTH",
"485 65 OFFCURVE",
"396 0 OFFCURVE",
"289 0 CURVE SMOOTH",
"179 0 OFFCURVE",
"90 65 OFFCURVE",
"90 148 CURVE",
"203 161 LINE",
"203 134 OFFCURVE",
"242 114 OFFCURVE",
"289 114 CURVE SMOOTH",
"335 114 OFFCURVE",
"372 134 OFFCURVE",
"372 161 CURVE SMOOTH",
"372 186 OFFCURVE",
"335 205 OFFCURVE",
"289 205 CURVE",
"289 294 LINE"
);
},
{
closed = 1;
nodes = (
"182 205 OFFCURVE",
"93 270 OFFCURVE",
"93 352 CURVE SMOOTH",
"93 436 OFFCURVE",
"182 500 OFFCURVE",
"289 500 CURVE SMOOTH",
"399 500 OFFCURVE",
"488 436 OFFCURVE",
"488 352 CURVE",
"375 340 LINE",
"375 365 OFFCURVE",
"336 385 OFFCURVE",
"289 385 CURVE SMOOTH",
"243 385 OFFCURVE",
"206 365 OFFCURVE",
"206 340 CURVE SMOOTH",
"206 313 OFFCURVE",
"243 294 OFFCURVE",
"289 294 CURVE",
"289 205 LINE"
);
}
);
width = 578;
}
);
unicode = 015F;
},
{
glyphname = germandbls;
lastChange = "2021-04-13 09:47:58 +0000";
layers = (
{
layerId = "A833981A-68C5-4528-81CD-92C717829696";
paths = (
{
closed = 1;
nodes = (
"90 0 LINE",
"220 0 LINE",
"220 700 LINE",
"135 700 LINE",
"90 700 OFFCURVE",
"90 660 OFFCURVE",
"90 631 CURVE"
);
},
{
closed = 1;
nodes = (
"345 280 LINE",
"345 410 LINE",
"281 410 LINE",
"281 280 LINE"
);
},
{
closed = 1;
nodes = (
"345 570 LINE",
"345 700 LINE",
"159 700 LINE",
"159 570 LINE"
);
},
{
closed = 1;
nodes = (
"345 280 LINE",
"566 280 OFFCURVE",
"565 700 OFFCURVE",
"345 700 CURVE",
"345 570 LINE",
"410 570 OFFCURVE",
"410 410 OFFCURVE",
"345 410 CURVE"
);
},
{
closed = 1;
nodes = (
"366 0 LINE",
"585 0 OFFCURVE",
"584 410 OFFCURVE",
"366 410 CURVE",
"345 280 LINE",
"410 280 OFFCURVE",
"410 129 OFFCURVE",
"345 129 CURVE"
);
},
{
closed = 1;
nodes = (
"366 0 LINE",
"345 129 LINE",
"281 130 LINE",
"281 0 LINE"
);
}
);
width = 600;
}
);
unicode = 00DF;
},
{
glyphname = t;
lastChange = "2021-04-12 09:44:04 +0000";
layers = (
{
layerId = "A833981A-68C5-4528-81CD-92C717829696";
paths = (
{
closed = 1;
nodes = (
"215 215 LINE",
"345 24 LINE",
"345 700 LINE",
"215 685 LINE"
);
},
{
closed = 1;
nodes = (
"80 500 LINE",
"80 370 LINE",
"480 370 LINE",
"480 500 LINE"
);
},
{
closed = 0;
nodes = (
"430 0 LINE",
"430 131 LINE"
);
},
{
closed = 1;
nodes = (
"215 215 LINE",
"215 115 OFFCURVE",
"260 0 OFFCURVE",
"430 0 CURVE",
"430 131 LINE",
"356 131 OFFCURVE",
"345 162 OFFCURVE",
"345 225 CURVE"
);
}
);
width = 560;
}
);
unicode = 0074;
},
{
glyphname = u;
lastChange = "2021-04-11 19:49:57 +0000";
layers = (
{
layerId = "A833981A-68C5-4528-81CD-92C717829696";
paths = (
{
closed = 1;
nodes = (
"510 500 LINE",
"380 500 LINE",
"380 28 LINE",
"391 0 LINE",
"510 0 LINE"
);
},
{
closed = 1;
nodes = (
"220 500 LINE",
"90 500 LINE",
"90 210 LINE",
"221 210 LINE"
);
},
{
closed = 1;
nodes = (
"252 128 OFFCURVE",
"221 136 OFFCURVE",
"221 210 CURVE",
"90 210 LINE",
"90 40 OFFCURVE",
"205 0 OFFCURVE",
"305 0 CURVE",
"315 128 LINE"
);
},
{
closed = 1;
nodes = (
"305 0 LINE",
"415 0 OFFCURVE",
"455 85 OFFCURVE",
"455 210 CURVE",
"380 210 LINE",
"380 157 OFFCURVE",
"363 128 OFFCURVE",
"315 128 CURVE"
);
}
);
width = 600;
}
);
unicode = 0075;
},
{
glyphname = udieresis;
lastChange = "2021-04-12 08:11:26 +0000";
layers = (
{
components = (
{
name = dieresiscomb;
}
);
layerId = "A833981A-68C5-4528-81CD-92C717829696";
paths = (
{
closed = 1;
nodes = (
"510 500 LINE",
"380 500 LINE",
"380 28 LINE",
"391 0 LINE",
"510 0 LINE"
);
},
{
closed = 1;
nodes = (
"220 500 LINE",
"90 500 LINE",
"90 210 LINE",
"221 210 LINE"
);
},
{
closed = 1;
nodes = (
"252 128 OFFCURVE",
"221 136 OFFCURVE",
"221 210 CURVE",
"90 210 LINE",
"90 40 OFFCURVE",
"205 0 OFFCURVE",
"305 0 CURVE",
"315 128 LINE"
);
},
{
closed = 1;
nodes = (
"305 0 LINE",
"415 0 OFFCURVE",
"455 85 OFFCURVE",
"455 210 CURVE",
"380 210 LINE",
"380 157 OFFCURVE",
"363 128 OFFCURVE",
"315 128 CURVE"
);
}
);
width = 600;
}
);
unicode = 00FC;
},
{
glyphname = v;
lastChange = "2021-04-11 21:46:26 +0000";
layers = (
{
layerId = "A833981A-68C5-4528-81CD-92C717829696";
paths = (
{
closed = 1;
nodes = (
"230 0 LINE",
"360 0 LINE",
"209 500 LINE",
"90 500 LINE"
);
},
{
closed = 1;
nodes = (
"230 0 LINE",
"360 0 LINE",
"516 450 LINE",
"385 450 LINE"
);
},
{
closed = 1;
nodes = (
"385 450 LINE",
"516 450 LINE",
"516 500 LINE",
"385 500 LINE"
);
}
);
width = 606;
}
);
unicode = 0076;
},
{
glyphname = w;
lastChange = "2021-04-11 21:50:41 +0000";
layers = (
{
layerId = "A833981A-68C5-4528-81CD-92C717829696";
paths = (
{
closed = 1;
nodes = (
"230 0 LINE",
"360 0 LINE",
"209 500 LINE",
"90 500 LINE"
);
},
{
closed = 1;
nodes = (
"230 0 LINE",
"360 0 LINE",
"516 450 LINE",
"385 450 LINE"
);
},
{
closed = 1;
nodes = (
"385 450 LINE",
"516 450 LINE",
"516 500 LINE",
"385 500 LINE"
);
},
{
closed = 1;
nodes = (
"230 0 LINE",
"360 0 LINE",
"209 500 LINE",
"90 500 LINE"
);
},
{
closed = 0;
nodes = (
"230 0 LINE",
"360 0 LINE"
);
},
{
closed = 1;
nodes = (
"230 0 LINE",
"360 0 LINE",
"209 500 LINE",
"90 500 LINE"
);
},
{
closed = 1;
nodes = (
"230 0 LINE",
"360 0 LINE",
"516 450 LINE",
"385 450 LINE"
);
},
{
closed = 1;
nodes = (
"385 450 LINE",
"516 450 LINE",
"516 500 LINE",
"385 500 LINE"
);
},
{
closed = 1;
nodes = (
"230 0 LINE",
"360 0 LINE",
"209 500 LINE",
"90 500 LINE"
);
},
{
closed = 0;
nodes = (
"230 0 LINE",
"360 0 LINE"
);
},
{
closed = 1;
nodes = (
"537 0 LINE",
"667 0 LINE",
"516 500 LINE",
"397 500 LINE"
);
},
{
closed = 1;
nodes = (
"537 0 LINE",
"667 0 LINE",
"823 450 LINE",
"692 450 LINE"
);
},
{
closed = 1;
nodes = (
"692 450 LINE",
"823 450 LINE",
"823 500 LINE",
"692 500 LINE"
);
},
{
closed = 1;
nodes = (
"537 0 LINE",
"667 0 LINE",
"516 500 LINE",
"397 500 LINE"
);
},
{
closed = 0;
nodes = (
"537 0 LINE",
"667 0 LINE"
);
},
{
closed = 1;
nodes = (
"537 0 LINE",
"667 0 LINE",
"516 500 LINE",
"397 500 LINE"
);
},
{
closed = 1;
nodes = (
"537 0 LINE",
"667 0 LINE",
"823 450 LINE",
"692 450 LINE"
);
},
{
closed = 1;
nodes = (
"692 450 LINE",
"823 450 LINE",
"823 500 LINE",
"692 500 LINE"
);
},
{
closed = 1;
nodes = (
"537 0 LINE",
"667 0 LINE",
"516 500 LINE",
"397 500 LINE"
);
},
{
closed = 0;
nodes = (
"537 0 LINE",
"667 0 LINE"
);
}
);
width = 913;
}
);
unicode = 0077;
},
{
glyphname = x;
lastChange = "2021-04-11 22:25:06 +0000";
layers = (
{
layerId = "A833981A-68C5-4528-81CD-92C717829696";
paths = (
{
closed = 1;
nodes = (
"386 0 LINE",
"517 0 LINE",
"210 500 LINE",
"91 500 LINE"
);
},
{
closed = 1;
nodes = (
"90 0 LINE",
"220 0 LINE",
"517 450 LINE",
"386 450 LINE"
);
},
{
closed = 1;
nodes = (
"386 450 LINE",
"517 450 LINE",
"517 500 LINE",
"386 500 LINE"
);
}
);
width = 607;
}
);
unicode = 0078;
},
{
glyphname = y;
lastChange = "2021-04-11 22:18:55 +0000";
layers = (
{
layerId = "A833981A-68C5-4528-81CD-92C717829696";
paths = (
{
closed = 1;
nodes = (
"230 0 LINE",
"360 0 LINE",
"209 500 LINE",
"90 500 LINE"
);
},
{
closed = 1;
nodes = (
"230 0 LINE",
"360 0 LINE",
"516 450 LINE",
"385 450 LINE"
);
},
{
closed = 1;
nodes = (
"385 450 LINE",
"516 450 LINE",
"516 500 LINE",
"385 500 LINE"
);
},
{
closed = 1;
nodes = (
"235 -18 OFFCURVE",
"209 -87 OFFCURVE",
"130 -87 CURVE",
"130 -200 LINE",
"247 -200 OFFCURVE",
"308 -160 OFFCURVE",
"360 0 CURVE",
"230 0 LINE"
);
}
);
width = 600;
}
);
unicode = 0079;
},
{
glyphname = z;
lastChange = "2021-04-12 07:24:38 +0000";
layers = (
{
layerId = "A833981A-68C5-4528-81CD-92C717829696";
paths = (
{
closed = 1;
nodes = (
"90 120 LINE",
"266 120 LINE",
"517 385 LINE",
"336 385 LINE"
);
},
{
closed = 1;
nodes = (
"91 385 LINE",
"517 385 LINE",
"517 500 LINE",
"91 500 LINE"
);
},
{
closed = 0;
nodes = (
"517 0 LINE"
);
},
{
closed = 1;
nodes = (
"91 0 LINE",
"517 0 LINE",
"517 120 LINE",
"91 120 LINE"
);
}
);
width = 607;
}
);
unicode = 007A;
},
{
glyphname = zcaron;
lastChange = "2021-04-12 09:06:10 +0000";
layers = (
{
components = (
{
name = brevecomb;
}
);
layerId = "A833981A-68C5-4528-81CD-92C717829696";
paths = (
{
closed = 1;
nodes = (
"90 120 LINE",
"266 120 LINE",
"517 385 LINE",
"336 385 LINE"
);
},
{
closed = 1;
nodes = (
"91 385 LINE",
"517 385 LINE",
"517 500 LINE",
"91 500 LINE"
);
},
{
closed = 0;
nodes = (
"517 0 LINE"
);
},
{
closed = 1;
nodes = (
"91 0 LINE",
"517 0 LINE",
"517 120 LINE",
"91 120 LINE"
);
}
);
width = 600;
}
);
unicode = 017E;
},
{
glyphname = zero;
lastChange = "2021-04-12 20:48:38 +0000";
layers = (
{
layerId = "A833981A-68C5-4528-81CD-92C717829696";
paths = (
{
closed = 0;
nodes = (
"315 0 LINE"
);
},
{
closed = 1;
nodes = (
"315 0 LINE",
"615 0 OFFCURVE",
"614 700 OFFCURVE",
"315 700 CURVE",
"315 569 LINE",
"461 570 OFFCURVE",
"461 131 OFFCURVE",
"315 131 CURVE"
);
},
{
closed = 0;
nodes = (
"315 0 LINE"
);
},
{
closed = 1;
nodes = (
"169 131 OFFCURVE",
"169 570 OFFCURVE",
"315 569 CURVE",
"315 700 LINE",
"16 700 OFFCURVE",
"15 0 OFFCURVE",
"315 0 CURVE",
"315 131 LINE"
);
}
);
width = 630;
}
);
unicode = 0030;
},
{
glyphname = one;
lastChange = "2021-04-12 18:34:26 +0000";
layers = (
{
layerId = "A833981A-68C5-4528-81CD-92C717829696";
paths = (
{
closed = 1;
nodes = (
"230 0 LINE",
"360 0 LINE",
"360 700 LINE",
"230 685 LINE"
);
},
{
closed = 1;
nodes = (
"90 545 LINE",
"230 560 LINE",
"360 700 LINE",
"90 670 LINE"
);
}
);
width = 450;
}
);
unicode = 0031;
},
{
glyphname = two;
lastChange = "2021-04-12 18:54:57 +0000";
layers = (
{
layerId = "A833981A-68C5-4528-81CD-92C717829696";
paths = (
{
closed = 1;
nodes = (
"410 493 LINE",
"410 528 OFFCURVE",
"368 580 OFFCURVE",
"316 580 CURVE SMOOTH",
"263 580 OFFCURVE",
"218 528 OFFCURVE",
"218 493 CURVE",
"93 493 LINE",
"93 610 OFFCURVE",
"191 700 OFFCURVE",
"316 700 CURVE SMOOTH",
"438 700 OFFCURVE",
"539 610 OFFCURVE",
"539 493 CURVE"
);
},
{
closed = 1;
nodes = (
"93 0 LINE",
"539 0 LINE",
"539 128 LINE",
"93 128 LINE"
);
},
{
closed = 1;
nodes = (
"410 360 OFFCURVE",
"93 360 OFFCURVE",
"93 128 CURVE",
"223 128 LINE",
"223 289 OFFCURVE",
"539 289 OFFCURVE",
"539 493 CURVE",
"410 493 LINE"
);
}
);
width = 600;
}
);
unicode = 0032;
},
{
glyphname = three;
lastChange = "2021-04-12 19:09:22 +0000";
layers = (
{
layerId = "A833981A-68C5-4528-81CD-92C717829696";
paths = (
{
closed = 1;
nodes = (
"215 207 LINE",
"215 172 OFFCURVE",
"260 120 OFFCURVE",
"313 120 CURVE SMOOTH",
"365 120 OFFCURVE",
"407 172 OFFCURVE",
"407 207 CURVE",
"536 207 LINE",
"536 276 OFFCURVE",
"500 315 OFFCURVE",
"452 351 CURVE",
"302 351 LINE",
"302 316 LINE",
"360 286 OFFCURVE",
"407 258 OFFCURVE",
"407 207 CURVE",
"536 207 LINE",
"536 90 OFFCURVE",
"435 0 OFFCURVE",
"313 0 CURVE SMOOTH",
"188 0 OFFCURVE",
"90 90 OFFCURVE",
"90 207 CURVE"
);
},
{
closed = 1;
nodes = (
"90 610 OFFCURVE",
"188 700 OFFCURVE",
"313 700 CURVE SMOOTH",
"435 700 OFFCURVE",
"536 610 OFFCURVE",
"536 493 CURVE",
"407 493 LINE",
"407 442 OFFCURVE",
"360 415 OFFCURVE",
"302 385 CURVE",
"302 351 LINE",
"452 351 LINE",
"500 387 OFFCURVE",
"536 424 OFFCURVE",
"536 493 CURVE",
"407 493 LINE",
"407 528 OFFCURVE",
"365 580 OFFCURVE",
"313 580 CURVE SMOOTH",
"260 580 OFFCURVE",
"215 528 OFFCURVE",
"215 493 CURVE",
"90 493 LINE"
);
}
);
width = 626;
}
);
unicode = 0033;
},
{
glyphname = four;
lastChange = "2021-04-12 19:11:08 +0000";
layers = (
{
layerId = "A833981A-68C5-4528-81CD-92C717829696";
paths = (
{
closed = 1;
nodes = (
"328 0 LINE",
"458 0 LINE",
"458 700 LINE",
"328 700 LINE"
);
},
{
closed = 1;
nodes = (
"220 240 LINE",
"458 700 LINE",
"328 700 LINE",
"90 240 LINE"
);
},
{
closed = 1;
nodes = (
"90 240 LINE",
"90 110 LINE",
"536 110 LINE",
"536 240 LINE"
);
}
);
width = 626;
}
);
unicode = 0034;
},
{
glyphname = five;
lastChange = "2021-04-12 19:49:44 +0000";
layers = (
{
layerId = "A833981A-68C5-4528-81CD-92C717829696";
paths = (
{
closed = 1;
nodes = (
"217 207 LINE",
"217 172 OFFCURVE",
"262 120 OFFCURVE",
"315 120 CURVE SMOOTH",
"367 120 OFFCURVE",
"406 172 OFFCURVE",
"406 247 CURVE",
"535 247 LINE",
"531 71 OFFCURVE",
"437 0 OFFCURVE",
"315 0 CURVE SMOOTH",
"190 0 OFFCURVE",
"92 90 OFFCURVE",
"92 207 CURVE"
);
},
{
closed = 1;
nodes = (
"128 573 LINE",
"507 571 LINE",
"507 700 LINE",
"123 700 LINE"
);
},
{
closed = 1;
nodes = (
"123 700 LINE",
"90 328 LINE",
"217 328 LINE",
"248 700 LINE"
);
},
{
closed = 1;
nodes = (
"406 247 LINE",
"535 247 LINE",
"535 247 LINE",
"406 247 LINE"
);
},
{
closed = 1;
nodes = (
"246 328 LINE",
"246 328 OFFCURVE",
"262 352 OFFCURVE",
"315 352 CURVE SMOOTH",
"371 352 OFFCURVE",
"406 322 OFFCURVE",
"406 247 CURVE",
"535 247 LINE",
"535 364 OFFCURVE",
"459 472 OFFCURVE",
"315 472 CURVE SMOOTH",
"124 472 OFFCURVE",
"221 371 OFFCURVE",
"90 328 CURVE"
);
}
);
width = 625;
}
);
unicode = 0035;
},
{
glyphname = six;
lastChange = "2021-04-12 21:00:18 +0000";
layers = (
{
layerId = "A833981A-68C5-4528-81CD-92C717829696";
paths = (
{
closed = 1;
nodes = (
"406 247 LINE"
);
},
{
closed = 1;
nodes = (
"406 247 LINE",
"535 247 LINE",
"535 247 LINE",
"406 247 LINE"
);
},
{
closed = 1;
nodes = (
"315 352 LINE",
"371 352 OFFCURVE",
"406 322 OFFCURVE",
"406 247 CURVE",
"535 247 LINE",
"535 364 OFFCURVE",
"459 472 OFFCURVE",
"315 472 CURVE"
);
},
{
closed = 1;
nodes = (
"535 130 OFFCURVE",
"466 0 OFFCURVE",
"310 0 CURVE SMOOTH",
"188 0 OFFCURVE",
"94 71 OFFCURVE",
"90 247 CURVE",
"219 247 LINE",
"219 172 OFFCURVE",
"258 120 OFFCURVE",
"310 120 CURVE SMOOTH",
"387 120 OFFCURVE",
"406 212 OFFCURVE",
"406 247 CURVE",
"535 247 LINE"
);
},
{
closed = 1;
nodes = (
"535 328 LINE",
"408 328 LINE"
);
},
{
closed = 1;
nodes = (
"90 247 LINE",
"219 247 LINE"
);
},
{
closed = 1;
nodes = (
"386 514 LINE",
"386 549 OFFCURVE",
"387 580 OFFCURVE",
"310 580 CURVE SMOOTH",
"258 580 OFFCURVE",
"219 528 OFFCURVE",
"219 453 CURVE",
"90 453 LINE",
"94 629 OFFCURVE",
"188 700 OFFCURVE",
"310 700 CURVE SMOOTH",
"466 700 OFFCURVE",
"515 631 OFFCURVE",
"515 514 CURVE"
);
},
{
closed = 1;
nodes = (
"90 247 LINE",
"219 247 LINE",
"219 453 LINE",
"90 453 LINE"
);
},
{
closed = 1;
nodes = (
"315 352 LINE",
"371 352 OFFCURVE",
"406 322 OFFCURVE",
"406 247 CURVE",
"535 247 LINE",
"535 364 OFFCURVE",
"459 472 OFFCURVE",
"315 472 CURVE"
);
},
{
closed = 1;
nodes = (
"171 472 OFFCURVE",
"95 364 OFFCURVE",
"95 247 CURVE",
"219 247 LINE",
"219 322 OFFCURVE",
"259 352 OFFCURVE",
"315 352 CURVE",
"315 472 LINE"
);
}
);
width = 625;
}
);
unicode = 0036;
},
{
glyphname = seven;
lastChange = "2021-04-12 20:22:51 +0000";
layers = (
{
layerId = "A833981A-68C5-4528-81CD-92C717829696";
paths = (
{
closed = 1;
nodes = (
"232 0 LINE",
"362 0 LINE",
"512 700 LINE",
"381 680 LINE"
);
},
{
closed = 1;
nodes = (
"90 575 LINE",
"399 575 LINE",
"512 700 LINE",
"90 700 LINE"
);
}
);
width = 602;
}
);
unicode = 0037;
},
{
glyphname = eight;
lastChange = "2021-04-13 09:31:14 +0000";
layers = (
{
layerId = "A833981A-68C5-4528-81CD-92C717829696";
paths = (
{
closed = 1;
nodes = (
"622 0 OFFCURVE",
"621 436 OFFCURVE",
"318 436 CURVE",
"318 336 LINE",
"465 336 OFFCURVE",
"465 118 OFFCURVE",
"318 118 CURVE",
"318 0 LINE"
);
},
{
closed = 1;
nodes = (
"318 118 LINE",
"170 118 OFFCURVE",
"170 336 OFFCURVE",
"318 336 CURVE",
"318 436 LINE",
"14 436 OFFCURVE",
"13 0 OFFCURVE",
"318 0 CURVE"
);
},
{
closed = 1;
nodes = (
"622 336 OFFCURVE",
"621 710 OFFCURVE",
"318 710 CURVE",
"318 608 LINE",
"427 608 OFFCURVE",
"465 436 OFFCURVE",
"318 436 CURVE",
"318 336 LINE"
);
},
{
closed = 1;
nodes = (
"318 436 LINE",
"170 436 OFFCURVE",
"208 608 OFFCURVE",
"318 608 CURVE",
"318 710 LINE",
"14 710 OFFCURVE",
"13 336 OFFCURVE",
"318 336 CURVE"
);
}
);
width = 636;
}
);
unicode = 0038;
},
{
glyphname = nine;
lastChange = "2021-04-12 21:00:23 +0000";
layers = (
{
layerId = "A833981A-68C5-4528-81CD-92C717829696";
paths = (
{
closed = 1;
nodes = (
"219 453 LINE"
);
},
{
closed = 1;
nodes = (
"219 453 LINE",
"90 453 LINE",
"90 453 LINE",
"219 453 LINE"
);
},
{
closed = 1;
nodes = (
"310 348 LINE",
"254 348 OFFCURVE",
"219 378 OFFCURVE",
"219 453 CURVE",
"90 453 LINE",
"90 336 OFFCURVE",
"166 228 OFFCURVE",
"310 228 CURVE"
);
},
{
closed = 1;
nodes = (
"90 570 OFFCURVE",
"159 700 OFFCURVE",
"315 700 CURVE SMOOTH",
"437 700 OFFCURVE",
"531 629 OFFCURVE",
"535 453 CURVE",
"406 453 LINE",
"406 528 OFFCURVE",
"367 580 OFFCURVE",
"315 580 CURVE SMOOTH",
"238 580 OFFCURVE",
"219 488 OFFCURVE",
"219 453 CURVE",
"90 453 LINE"
);
},
{
closed = 1;
nodes = (
"90 372 LINE",
"217 372 LINE"
);
},
{
closed = 1;
nodes = (
"535 453 LINE",
"406 453 LINE"
);
},
{
closed = 1;
nodes = (
"239 186 LINE",
"239 151 OFFCURVE",
"238 120 OFFCURVE",
"315 120 CURVE SMOOTH",
"367 120 OFFCURVE",
"406 172 OFFCURVE",
"406 247 CURVE",
"535 247 LINE",
"531 71 OFFCURVE",
"437 0 OFFCURVE",
"315 0 CURVE SMOOTH",
"159 0 OFFCURVE",
"110 69 OFFCURVE",
"110 186 CURVE"
);
},
{
closed = 1;
nodes = (
"535 453 LINE",
"406 453 LINE",
"406 247 LINE",
"535 247 LINE"
);
},
{
closed = 1;
nodes = (
"310 348 LINE",
"254 348 OFFCURVE",
"219 378 OFFCURVE",
"219 453 CURVE",
"90 453 LINE",
"90 336 OFFCURVE",
"166 228 OFFCURVE",
"310 228 CURVE"
);
},
{
closed = 1;
nodes = (
"454 228 OFFCURVE",
"530 336 OFFCURVE",
"530 453 CURVE",
"406 453 LINE",
"406 378 OFFCURVE",
"366 348 OFFCURVE",
"310 348 CURVE",
"310 228 LINE"
);
}
);
width = 625;
}
);
unicode = 0039;
},
{
glyphname = period;
lastChange = "2021-04-12 08:45:15 +0000";
layers = (
{
layerId = "A833981A-68C5-4528-81CD-92C717829696";
paths = (
{
closed = 1;
nodes = (
"141 0 OFFCURVE",
"170 29 OFFCURVE",
"170 65 CURVE SMOOTH",
"170 101 OFFCURVE",
"141 130 OFFCURVE",
"105 130 CURVE SMOOTH",
"69 130 OFFCURVE",
"40 101 OFFCURVE",
"40 65 CURVE SMOOTH",
"40 29 OFFCURVE",
"69 0 OFFCURVE",
"105 0 CURVE SMOOTH"
);
}
);
width = 210;
}
);
unicode = 002E;
},
{
glyphname = comma;
lastChange = "2021-04-12 09:03:39 +0000";
layers = (
{
layerId = "A833981A-68C5-4528-81CD-92C717829696";
paths = (
{
closed = 1;
nodes = (
"241 0 OFFCURVE",
"270 29 OFFCURVE",
"270 65 CURVE SMOOTH",
"270 101 OFFCURVE",
"241 130 OFFCURVE",
"205 130 CURVE SMOOTH",
"169 130 OFFCURVE",
"140 101 OFFCURVE",
"140 65 CURVE SMOOTH",
"140 29 OFFCURVE",
"169 0 OFFCURVE",
"205 0 CURVE SMOOTH"
);
},
{
closed = 1;
nodes = (
"145 47 OFFCURVE",
"119 -87 OFFCURVE",
"40 -87 CURVE",
"67 -200 LINE",
"184 -200 OFFCURVE",
"218 -95 OFFCURVE",
"270 65 CURVE",
"227 65 OFFCURVE",
"183 65 OFFCURVE",
"140 65 CURVE"
);
}
);
width = 310;
}
);
unicode = 002C;
},
{
glyphname = hyphen;
lastChange = "2021-04-12 09:09:24 +0000";
layers = (
{
layerId = "A833981A-68C5-4528-81CD-92C717829696";
paths = (
{
closed = 1;
nodes = (
"80 365 LINE",
"80 235 LINE",
"480 235 LINE",
"480 365 LINE"
);
}
);
width = 600;
}
);
unicode = 002D;
},
{
glyphname = dieresiscomb;
lastChange = "2021-04-12 08:14:25 +0000";
layers = (
{
layerId = "A833981A-68C5-4528-81CD-92C717829696";
paths = (
{
closed = 1;
nodes = (
"190 535 OFFCURVE",
"220 564 OFFCURVE",
"220 601 CURVE SMOOTH",
"220 637 OFFCURVE",
"190 665 OFFCURVE",
"155 665 CURVE SMOOTH",
"119 665 OFFCURVE",
"90 637 OFFCURVE",
"90 601 CURVE SMOOTH",
"90 564 OFFCURVE",
"119 535 OFFCURVE",
"155 535 CURVE SMOOTH"
);
},
{
closed = 1;
nodes = (
"480 535 OFFCURVE",
"510 564 OFFCURVE",
"510 601 CURVE SMOOTH",
"510 637 OFFCURVE",
"480 665 OFFCURVE",
"445 665 CURVE SMOOTH",
"409 665 OFFCURVE",
"380 637 OFFCURVE",
"380 601 CURVE SMOOTH",
"380 564 OFFCURVE",
"409 535 OFFCURVE",
"445 535 CURVE SMOOTH"
);
}
);
width = 600;
}
);
unicode = 0308;
},
{
glyphname = dotaccentcomb;
lastChange = "2021-04-12 15:23:19 +0000";
layers = (
{
layerId = "A833981A-68C5-4528-81CD-92C717829696";
paths = (
{
closed = 1;
nodes = (
"335 535 OFFCURVE",
"365 564 OFFCURVE",
"365 601 CURVE SMOOTH",
"365 637 OFFCURVE",
"335 665 OFFCURVE",
"300 665 CURVE SMOOTH",
"264 665 OFFCURVE",
"235 637 OFFCURVE",
"235 601 CURVE SMOOTH",
"235 564 OFFCURVE",
"264 535 OFFCURVE",
"300 535 CURVE SMOOTH"
);
}
);
width = 600;
}
);
unicode = 0307;
},
{
glyphname = gravecomb;
lastChange = "2021-04-12 09:11:28 +0000";
layers = (
{
layerId = "A833981A-68C5-4528-81CD-92C717829696";
paths = (
{
closed = 1;
nodes = (
"380 534 LINE",
"262 633 LINE",
"158 633 LINE",
"225 534 LINE"
);
}
);
width = 600;
}
);
unicode = 0300;
},
{
glyphname = acutecomb;
lastChange = "2021-04-13 08:08:26 +0000";
layers = (
{
layerId = "A833981A-68C5-4528-81CD-92C717829696";
paths = (
{
closed = 1;
nodes = (
"384 534 LINE",
"482 635 LINE",
"352 635 LINE",
"274 534 LINE"
);
}
);
width = 600;
}
);
unicode = 0301;
},
{
glyphname = hungarumlautcomb;
lastChange = "2021-04-13 08:22:58 +0000";
layers = (
{
layerId = "A833981A-68C5-4528-81CD-92C717829696";
paths = (
{
closed = 1;
nodes = (
"332 643 LINE",
"248 643 LINE",
"205 516 LINE",
"289 516 LINE"
);
},
{
closed = 1;
nodes = (
"455 643 LINE",
"370 643 LINE",
"327 516 LINE",
"412 516 LINE"
);
}
);
width = 600;
}
);
unicode = 030B;
},
{
glyphname = circumflexcomb;
lastChange = "2021-04-13 07:47:14 +0000";
layers = (
{
layerId = "A833981A-68C5-4528-81CD-92C717829696";
paths = (
{
closed = 1;
nodes = (
"355 534 LINE",
"478 534 LINE",
"380 635 LINE",
"278 635 LINE"
);
},
{
closed = 1;
nodes = (
"158 536 LINE",
"262 536 LINE",
"380 635 LINE",
"225 635 LINE"
);
}
);
width = 568;
}
);
unicode = 0302;
},
{
glyphname = caroncomb;
lastChange = "2021-04-12 08:47:12 +0000";
layers = (
{
layerId = "A833981A-68C5-4528-81CD-92C717829696";
paths = (
{
closed = 1;
nodes = (
"380 534 LINE",
"478 635 LINE",
"355 635 LINE",
"278 534 LINE"
);
},
{
closed = 1;
nodes = (
"380 534 LINE",
"262 633 LINE",
"158 633 LINE",
"225 534 LINE"
);
}
);
width = 600;
}
);
unicode = 030C;
},
{
glyphname = brevecomb;
lastChange = "2021-04-13 07:44:20 +0000";
layers = (
{
layerId = "A833981A-68C5-4528-81CD-92C717829696";
paths = (
{
closed = 1;
nodes = (
"450 675 LINE",
"297 648 LINE",
"297 545 LINE"
);
},
{
closed = 1;
nodes = (
"297 648 LINE",
"150 675 LINE",
"298 544 LINE"
);
}
);
width = 600;
}
);
unicode = 0306;
},
{
glyphname = ringcomb;
lastChange = "2021-04-13 08:19:16 +0000";
layers = (
{
layerId = "A833981A-68C5-4528-81CD-92C717829696";
paths = (
{
closed = 1;
nodes = (
"346 555 OFFCURVE",
"370 516 OFFCURVE",
"420 516 CURVE SMOOTH",
"468 516 OFFCURVE",
"510 553 OFFCURVE",
"510 600 CURVE SMOOTH",
"510 646 OFFCURVE",
"468 682 OFFCURVE",
"420 682 CURVE SMOOTH",
"370 682 OFFCURVE",
"346 648 OFFCURVE",
"346 602 CURVE SMOOTH"
);
},
{
closed = 1;
nodes = (
"384 627 OFFCURVE",
"403 648 OFFCURVE",
"425 648 CURVE SMOOTH",
"448 648 OFFCURVE",
"466 627 OFFCURVE",
"466 601 CURVE SMOOTH",
"466 576 OFFCURVE",
"448 555 OFFCURVE",
"425 555 CURVE SMOOTH",
"403 555 OFFCURVE",
"384 576 OFFCURVE",
"384 601 CURVE SMOOTH"
);
}
);
width = 600;
}
);
unicode = 030A;
},
{
glyphname = tildecomb;
lastChange = "2021-04-12 21:06:56 +0000";
layers = (
{
layerId = "A833981A-68C5-4528-81CD-92C717829696";
paths = (
{
closed = 1;
nodes = (
"378 611 LINE",
"378 700 OFFCURVE",
"557 500 OFFCURVE",
"557 700 CURVE",
"447 700 LINE",
"447 617 OFFCURVE",
"268 800 OFFCURVE",
"268 611 CURVE"
);
}
);
width = 600;
}
);
unicode = 0303;
},
{
glyphname = macroncomb;
lastChange = "2021-04-12 21:07:21 +0000";
layers = (
{
layerId = "A833981A-68C5-4528-81CD-92C717829696";
paths = (
{
closed = 1;
nodes = (
"234 596 LINE",
"516 596 LINE",
"516 674 LINE",
"234 674 LINE"
);
}
);
width = 600;
}
);
unicode = 0304;
},
{
glyphname = commaturnedabovecomb;
lastChange = "2021-04-12 21:09:44 +0000";
layers = (
{
layerId = "A833981A-68C5-4528-81CD-92C717829696";
paths = (
{
closed = 1;
nodes = (
"135 459 LINE",
"252 459 LINE",
"252 577 LINE",
"135 577 LINE"
);
},
{
closed = 1;
nodes = (
"157 700 OFFCURVE",
"136 649 OFFCURVE",
"135 577 CURVE",
"189 577 LINE",
"189 649 OFFCURVE",
"200 668 OFFCURVE",
"215 668 CURVE",
"215 700 LINE"
);
}
);
width = 600;
}
);
unicode = 0312;
},
{
glyphname = commaaccentcomb;
lastChange = "2021-04-13 07:55:20 +0000";
layers = (
{
layerId = "A833981A-68C5-4528-81CD-92C717829696";
paths = (
{
closed = 1;
nodes = (
"229 -200 LINE",
"359 -200 LINE",
"439 -39 LINE",
"309 -39 LINE"
);
}
);
width = 600;
}
);
unicode = 0326;
},
{
glyphname = cedillacomb;
lastChange = "2021-04-12 17:06:55 +0000";
layers = (
{
layerId = "A833981A-68C5-4528-81CD-92C717829696";
paths = (
{
closed = 1;
nodes = (
"218 -32 OFFCURVE",
"182 -90 OFFCURVE",
"104 -90 CURVE",
"202 -158 LINE",
"314 -159 OFFCURVE",
"356 -33 OFFCURVE",
"356 11 CURVE",
"218 11 LINE"
);
}
);
width = 600;
}
);
unicode = 0327;
},
{
glyphname = ogonekcomb;
lastChange = "2021-04-12 10:00:05 +0000";
layers = (
{
layerId = "A833981A-68C5-4528-81CD-92C717829696";
paths = (
{
closed = 1;
nodes = (
"333 0 OFFCURVE",
"289 0 OFFCURVE",
"246 0 CURVE",
"298 -160 OFFCURVE",
"332 -173 OFFCURVE",
"449 -211 CURVE",
"476 -98 LINE",
"397 -98 OFFCURVE",
"371 -18 OFFCURVE",
"376 0 CURVE"
);
}
);
width = 600;
}
);
unicode = 0328;
},
{
glyphname = strokeshortcomb;
lastChange = "2021-04-12 21:07:34 +0000";
layers = (
{
layerId = "A833981A-68C5-4528-81CD-92C717829696";
paths = (
{
closed = 1;
nodes = (
"82 219 LINE",
"401 219 LINE",
"401 295 LINE",
"82 295 LINE"
);
}
);
width = 600;
}
);
unicode = 0335;
},
{
glyphname = strokelongcomb;
lastChange = "2021-04-12 21:07:40 +0000";
layers = (
{
layerId = "A833981A-68C5-4528-81CD-92C717829696";
paths = (
{
closed = 1;
nodes = (
"74 215 LINE",
"449 215 LINE",
"449 294 LINE",
"74 294 LINE"
);
}
);
width = 600;
}
);
unicode = 0336;
},
{
glyphname = slashshortcomb;
lastChange = "2021-04-12 09:54:27 +0000";
layers = (
{
layerId = "A833981A-68C5-4528-81CD-92C717829696";
paths = (
{
closed = 1;
nodes = (
"90 246 LINE",
"220 246 LINE",
"517 466 LINE",
"386 466 LINE"
);
},
{
closed = 1;
nodes = (
"386 466 LINE",
"517 466 LINE",
"517 516 LINE",
"386 516 LINE"
);
}
);
width = 600;
}
);
unicode = 0337;
},
{
glyphname = slashlongcomb;
lastChange = "2021-04-12 09:53:43 +0000";
layers = (
{
layerId = "A833981A-68C5-4528-81CD-92C717829696";
paths = (
{
closed = 1;
nodes = (
"90 0 LINE",
"220 0 LINE",
"517 666 LINE",
"386 666 LINE"
);
},
{
closed = 1;
nodes = (
"386 666 LINE",
"517 666 LINE",
"517 716 LINE",
"386 716 LINE"
);
}
